<?xml version="1.0" encoding="utf-8"?>
<!-- Generator: Adobe Illustrator 17.0.0, SVG Export Plug-In . SVG Version: 6.00 Build 0)  -->
<!DOCTYPE svg PUBLIC "-//W3C//DTD SVG 1.1//EN" "http://www.w3.org/Graphics/SVG/1.1/DTD/svg11.dtd">
<svg version="1.1" id="Layer_1" xmlns="http://www.w3.org/2000/svg" xmlns:xlink="http://www.w3.org/1999/xlink" x="0px" y="0px"
	 width="567.21px" height="579px" viewBox="0 0 567.21 579" enable-background="new 0 0 567.21 579" xml:space="preserve">
<g>
	<defs>
		
			<rect id="SVGID_1_" x="-24.79" y="19.635" transform="matrix(0.1037 0.9946 -0.9946 0.1037 533.7519 -10.6586)" width="595.16" height="542.365"/>
	</defs>
	<clipPath id="SVGID_2_">
		<use xlink:href="#SVGID_1_"  overflow="visible"/>
	</clipPath>
	<g clip-path="url(#SVGID_2_)">
		<defs>
			
				<rect id="SVGID_3_" x="-24.79" y="19.635" transform="matrix(0.1037 0.9946 -0.9946 0.1037 533.7519 -10.6586)" width="595.16" height="542.365"/>
		</defs>
		<clipPath id="SVGID_4_">
			<use xlink:href="#SVGID_3_"  overflow="visible"/>
		</clipPath>
		<g opacity="0.042" clip-path="url(#SVGID_4_)" enable-background="new    ">
			<g>
				<defs>
					
						<rect id="SVGID_5_" x="-67.438" y="66.961" transform="matrix(0.1037 0.9946 -0.9946 0.1037 382.8531 47.9533)" width="464.517" height="338.876"/>
				</defs>
				<clipPath id="SVGID_6_">
					<use xlink:href="#SVGID_5_"  overflow="visible"/>
				</clipPath>
				<path clip-path="url(#SVGID_6_)" fill="#161ABC" d="M75.189,92.301c7.628-17.7,15.442-35.709,27.008-50.598
					c21.599-27.821,54.362-41.236,84.235-40.145c29.873,1.091,57.062,15.222,80.252,34.232
					c20.748,17.014,39.119,38.529,49.715,65.792c10.595,27.262,12.765,60.784,2.022,91.203
					c-7.288,20.642-20.09,39.114-25.739,60.225c-9.116,34.078,1.96,68.02-1.128,102.656c-3.219,36.064-22.974,72.042-50.613,92.184
					c-30.142,21.957-66.833,24.407-97.995,14.322c-31.162-10.084-57.664-31.441-82.214-54.427
					c-29.251-27.391-58.192-61.762-59.307-108.05c-0.814-33.506,13.251-67.056,26.938-98.797
					C43.971,164.699,59.58,128.5,75.189,92.301"/>
			</g>
		</g>
		<g opacity="0.042" clip-path="url(#SVGID_4_)" enable-background="new    ">
			<g>
				<defs>
					
						<rect id="SVGID_7_" x="153.715" y="180.497" transform="matrix(0.1037 0.9946 -0.9946 0.1037 694.6112 -19.0445)" width="408.315" height="390.758"/>
				</defs>
				<clipPath id="SVGID_8_">
					<use xlink:href="#SVGID_7_"  overflow="visible"/>
				</clipPath>
				<path clip-path="url(#SVGID_8_)" fill="#F8153A" d="M179.542,368.642c-9.252-16.908-18.632-34.152-23.246-52.434
					c-8.625-34.148,0.976-68.224,20.227-91.093s47.126-35.596,76.383-42.165c26.18-5.875,54.446-7.106,82.451,1.33
					c28.007,8.435,55.758,27.364,73.115,54.556c11.78,18.452,18.453,39.913,31.611,57.36c21.241,28.164,54.808,40.333,80.2,64.09
					c26.438,24.74,42.625,62.458,41.483,96.638c-1.255,37.269-21.914,67.691-49.045,86.039
					c-27.133,18.346-60.277,26.082-93.506,31.277c-39.594,6.186-84.495,7.832-121.659-19.788
					c-26.904-19.988-44.683-51.725-61.267-82.053C217.372,437.815,198.456,403.229,179.542,368.642"/>
			</g>
		</g>
		<g opacity="0.06" clip-path="url(#SVGID_4_)" enable-background="new    ">
			<g>
				<defs>
					
						<rect id="SVGID_9_" x="471.262" y="270.97" transform="matrix(0.1037 0.9946 -0.9946 0.1037 720.1487 -227.3184)" width="29.876" height="29.876"/>
				</defs>
				<clipPath id="SVGID_10_">
					<use xlink:href="#SVGID_9_"  overflow="visible"/>
				</clipPath>
				<path clip-path="url(#SVGID_10_)" fill="#161ABC" d="M501.057,284.359c-0.855-8.206-8.201-14.164-16.407-13.308
					c-8.206,0.855-14.164,8.201-13.308,16.406c0.855,8.206,8.201,14.164,16.406,13.308
					C495.954,299.91,501.913,292.565,501.057,284.359"/>
			</g>
		</g>
		<g opacity="0.06" clip-path="url(#SVGID_4_)" enable-background="new    ">
			<g>
				<defs>
					
						<rect id="SVGID_11_" x="170.179" y="98.92" transform="matrix(0.1037 0.9946 -0.9946 0.1037 285.7832 -82.4122)" width="36.876" height="36.876"/>
				</defs>
				<clipPath id="SVGID_12_">
					<use xlink:href="#SVGID_11_"  overflow="visible"/>
				</clipPath>
				<path clip-path="url(#SVGID_12_)" fill="#161ABC" d="M206.956,115.446c-1.056-10.128-10.122-17.482-20.25-16.426
					c-10.128,1.056-17.483,10.121-16.427,20.25c1.056,10.129,10.122,17.483,20.251,16.427S208.012,125.575,206.956,115.446"/>
			</g>
		</g>
		<g opacity="0.06" clip-path="url(#SVGID_4_)" enable-background="new    ">
			<g>
				<defs>
					
						<rect id="SVGID_13_" x="377.398" y="278.737" transform="matrix(0.1037 0.9946 -0.9946 0.1037 635.5781 -126.5734)" width="21.239" height="21.24"/>
				</defs>
				<clipPath id="SVGID_14_">
					<use xlink:href="#SVGID_13_"  overflow="visible"/>
				</clipPath>
				<path clip-path="url(#SVGID_14_)" fill="#161ABC" d="M392.344,279.661c-5.356-2.389-11.634,0.016-14.024,5.37
					c-2.39,5.356,0.014,11.633,5.37,14.024c5.355,2.389,11.633-0.015,14.023-5.37C400.103,288.33,397.699,282.051,392.344,279.661"
					/>
			</g>
		</g>
		<g opacity="0.06" clip-path="url(#SVGID_4_)" enable-background="new    ">
			<g>
				<defs>
					
						<rect id="SVGID_15_" x="265.185" y="199.915" transform="matrix(0.1037 0.9946 -0.9946 0.1037 450.5909 -85.3022)" width="14.88" height="14.88"/>
				</defs>
				<clipPath id="SVGID_16_">
					<use xlink:href="#SVGID_15_"  overflow="visible"/>
				</clipPath>
				<path clip-path="url(#SVGID_16_)" fill="#F8153A" d="M274.68,200.207c-3.948-1.136-8.069,1.144-9.205,5.091
					c-1.136,3.949,1.145,8.07,5.092,9.205c3.948,1.136,8.069-1.144,9.205-5.091C280.908,205.464,278.628,201.342,274.68,200.207"/>
			</g>
		</g>
		<g opacity="0.06" clip-path="url(#SVGID_4_)" enable-background="new    ">
			<g>
				<defs>
					
						<rect id="SVGID_17_" x="414.865" y="349.736" transform="matrix(0.1037 0.9946 -0.9946 0.1037 758.3516 -101.1692)" width="40.887" height="40.887"/>
				</defs>
				<clipPath id="SVGID_18_">
					<use xlink:href="#SVGID_17_"  overflow="visible"/>
				</clipPath>
				<path clip-path="url(#SVGID_18_)" fill="#F8153A" d="M440.958,350.538c-10.848-3.121-22.171,3.144-25.291,13.992
					c-3.12,10.848,3.144,22.171,13.991,25.291c10.848,3.121,22.172-3.143,25.292-13.991
					C458.07,364.982,451.806,353.659,440.958,350.538"/>
			</g>
		</g>
		<g opacity="0.06" clip-path="url(#SVGID_4_)" enable-background="new    ">
			<g>
				<defs>
					
						<rect id="SVGID_19_" x="364.501" y="162.94" transform="matrix(0.1037 0.9946 -0.9946 0.1037 505.6704 -217.3712)" width="17.881" height="17.88"/>
				</defs>
				<clipPath id="SVGID_20_">
					<use xlink:href="#SVGID_19_"  overflow="visible"/>
				</clipPath>
				<path clip-path="url(#SVGID_20_)" fill="#F8153A" d="M375.912,163.291c-4.744-1.365-9.696,1.374-11.06,6.118
					c-1.365,4.745,1.375,9.697,6.119,11.061c4.743,1.365,9.696-1.375,11.06-6.119C383.396,169.607,380.656,164.655,375.912,163.291"
					/>
			</g>
		</g>
		<g opacity="0.06" clip-path="url(#SVGID_4_)" enable-background="new    ">
			<g>
				<defs>
					
						<rect id="SVGID_21_" x="291.527" y="26.551" transform="matrix(0.1037 0.9946 -0.9946 0.1037 297.9899 -266.6922)" width="10.879" height="10.879"/>
				</defs>
				<clipPath id="SVGID_22_">
					<use xlink:href="#SVGID_21_"  overflow="visible"/>
				</clipPath>
				<path clip-path="url(#SVGID_22_)" fill="#F8153A" d="M298.47,26.764c-2.887-0.83-5.899,0.836-6.73,3.723
					c-0.83,2.886,0.837,5.899,3.723,6.729c2.887,0.83,5.899-0.837,6.73-3.723C303.023,30.607,301.355,27.594,298.47,26.764"/>
			</g>
		</g>
		<g opacity="0.06" clip-path="url(#SVGID_4_)" enable-background="new    ">
			<g>
				<defs>
					
						<rect id="SVGID_23_" x="315.041" y="57.208" transform="matrix(0.1037 0.9946 -0.9946 0.1037 354.7793 -262.3992)" width="15.876" height="16.876"/>
				</defs>
				<clipPath id="SVGID_24_">
					<use xlink:href="#SVGID_23_"  overflow="visible"/>
				</clipPath>
				<path clip-path="url(#SVGID_24_)" fill="#161ABC" d="M331.372,64.771c-0.455-4.36-4.581-7.502-9.216-7.019
					c-4.635,0.483-8.024,4.409-7.569,8.769c0.455,4.36,4.581,7.503,9.216,7.02S331.826,69.132,331.372,64.771"/>
			</g>
		</g>
		<g opacity="0.06" clip-path="url(#SVGID_4_)" enable-background="new    ">
			<g>
				<defs>
					
						<rect id="SVGID_25_" x="449.684" y="275.341" transform="matrix(0.1037 0.9946 -0.9946 0.1037 682.8062 -200.7771)" width="6.237" height="6.238"/>
				</defs>
				<clipPath id="SVGID_26_">
					<use xlink:href="#SVGID_25_"  overflow="visible"/>
				</clipPath>
				<path clip-path="url(#SVGID_26_)" fill="#161ABC" d="M454.073,275.612c-1.572-0.701-3.416,0.004-4.118,1.578
					c-0.702,1.572,0.004,3.416,1.576,4.118c1.573,0.702,3.416-0.004,4.118-1.576C456.351,278.158,455.645,276.314,454.073,275.612"
					/>
			</g>
		</g>
		<g opacity="0.06" clip-path="url(#SVGID_4_)" enable-background="new    ">
			<g>
				<defs>
					
						<rect id="SVGID_27_" x="402.985" y="126.38" transform="matrix(0.1037 0.9946 -0.9946 0.1037 492.7927 -287.844)" width="6.237" height="6.238"/>
				</defs>
				<clipPath id="SVGID_28_">
					<use xlink:href="#SVGID_27_"  overflow="visible"/>
				</clipPath>
				<path clip-path="url(#SVGID_28_)" fill="#161ABC" d="M407.374,126.651c-1.572-0.701-3.416,0.004-4.118,1.578
					c-0.702,1.572,0.004,3.416,1.576,4.118c1.573,0.702,3.416-0.004,4.118-1.576C409.653,129.198,408.946,127.353,407.374,126.651"
					/>
			</g>
		</g>
		<g opacity="0.06" clip-path="url(#SVGID_4_)" enable-background="new    ">
			<g>
				<defs>
					
						<rect id="SVGID_29_" x="204.658" y="75.673" transform="matrix(0.1037 0.9946 -0.9946 0.1037 264.5973 -136.0349)" width="6.237" height="6.238"/>
				</defs>
				<clipPath id="SVGID_30_">
					<use xlink:href="#SVGID_29_"  overflow="visible"/>
				</clipPath>
				<path clip-path="url(#SVGID_30_)" fill="#161ABC" d="M209.047,75.944c-1.572-0.701-3.416,0.004-4.118,1.578
					c-0.702,1.572,0.004,3.416,1.576,4.118c1.573,0.702,3.416-0.004,4.118-1.576C211.325,78.49,210.619,76.646,209.047,75.944"/>
			</g>
		</g>
		<g opacity="0.06" clip-path="url(#SVGID_4_)" enable-background="new    ">
			<g>
				<defs>
					
						<rect id="SVGID_31_" x="344.502" y="37.968" transform="matrix(0.1037 0.9946 -0.9946 0.1037 352.4385 -308.9199)" width="6.237" height="6.238"/>
				</defs>
				<clipPath id="SVGID_32_">
					<use xlink:href="#SVGID_31_"  overflow="visible"/>
				</clipPath>
				<path clip-path="url(#SVGID_32_)" fill="#161ABC" d="M348.891,38.239c-1.572-0.701-3.416,0.004-4.118,1.578
					c-0.702,1.572,0.004,3.416,1.576,4.118c1.573,0.702,3.416-0.004,4.118-1.576C351.169,40.786,350.463,38.941,348.891,38.239"/>
			</g>
		</g>
		<g opacity="0.06" clip-path="url(#SVGID_4_)" enable-background="new    ">
			<g>
				<defs>
					
						<rect id="SVGID_33_" x="476.125" y="358.547" transform="matrix(0.1037 0.9946 -0.9946 0.1037 789.2634 -152.497)" width="6.237" height="6.238"/>
				</defs>
				<clipPath id="SVGID_34_">
					<use xlink:href="#SVGID_33_"  overflow="visible"/>
				</clipPath>
				<path clip-path="url(#SVGID_34_)" fill="#161ABC" d="M480.514,358.818c-1.572-0.701-3.416,0.004-4.118,1.578
					c-0.702,1.572,0.004,3.416,1.577,4.118c1.573,0.702,3.416-0.004,4.119-1.577C482.792,361.365,482.086,359.52,480.514,358.818"/>
			</g>
		</g>
		<g opacity="0.06" clip-path="url(#SVGID_4_)" enable-background="new    ">
			<g>
				<defs>
					
						<rect id="SVGID_35_" x="236.971" y="60.121" transform="matrix(0.1037 0.9946 -0.9946 0.1037 292.2749 -182.8502)" width="21.239" height="21.24"/>
				</defs>
				<clipPath id="SVGID_36_">
					<use xlink:href="#SVGID_35_"  overflow="visible"/>
				</clipPath>
				<path clip-path="url(#SVGID_36_)" fill="#161ABC" d="M251.917,61.044c-5.356-2.389-11.634,0.016-14.024,5.37
					c-2.39,5.356,0.014,11.633,5.37,14.024c5.355,2.389,11.633-0.015,14.023-5.37C259.676,69.713,257.272,63.435,251.917,61.044"/>
			</g>
		</g>
		<g opacity="0.06" clip-path="url(#SVGID_4_)" enable-background="new    ">
			<g>
				<defs>
					
						<rect id="SVGID_37_" x="497.609" y="305.429" transform="matrix(0.1037 0.9946 -0.9946 0.1037 769.5337 -222.1966)" width="20.882" height="20.882"/>
				</defs>
				<clipPath id="SVGID_38_">
					<use xlink:href="#SVGID_37_"  overflow="visible"/>
				</clipPath>
				<path clip-path="url(#SVGID_38_)" fill="#F8153A" d="M510.936,305.838c-5.54-1.593-11.324,1.606-12.917,7.147
					c-1.594,5.539,1.606,11.322,7.146,12.916c5.54,1.594,11.323-1.605,12.917-7.145
					C519.675,313.215,516.476,307.432,510.936,305.838"/>
			</g>
		</g>
		<g opacity="0.06" clip-path="url(#SVGID_4_)" enable-background="new    ">
			<g>
				<defs>
					
						<rect id="SVGID_39_" x="319.955" y="21.272" transform="matrix(0.1037 0.9946 -0.9946 0.1037 322.0023 -299.8953)" width="14.88" height="14.88"/>
				</defs>
				<clipPath id="SVGID_40_">
					<use xlink:href="#SVGID_39_"  overflow="visible"/>
				</clipPath>
				<path clip-path="url(#SVGID_40_)" fill="#F8153A" d="M329.451,21.565c-3.948-1.136-8.069,1.144-9.205,5.091
					c-1.136,3.949,1.145,8.07,5.092,9.206c3.948,1.135,8.069-1.145,9.205-5.092C335.679,26.821,333.399,22.699,329.451,21.565"/>
			</g>
		</g>
		<g opacity="0.06" clip-path="url(#SVGID_4_)" enable-background="new    ">
			<g>
				<defs>
					
						<rect id="SVGID_41_" x="398.819" y="155.784" transform="matrix(0.1037 0.9946 -0.9946 0.1037 542.5518 -258.6058)" width="31.884" height="31.885"/>
				</defs>
				<clipPath id="SVGID_42_">
					<use xlink:href="#SVGID_41_"  overflow="visible"/>
				</clipPath>
				<path clip-path="url(#SVGID_42_)" fill="#F8153A" d="M419.167,156.41c-8.46-2.434-17.29,2.452-19.723,10.911
					c-2.433,8.459,2.451,17.289,10.911,19.723c8.459,2.433,17.289-2.452,19.723-10.911
					C432.511,167.673,427.626,158.843,419.167,156.41"/>
			</g>
		</g>
		<g opacity="0.06" clip-path="url(#SVGID_4_)" enable-background="new    ">
			<g>
				<defs>
					
						<rect id="SVGID_43_" x="307.023" y="248.83" transform="matrix(0.1037 0.9946 -0.9946 0.1037 533.2993 -82.8927)" width="11.237" height="11.238"/>
				</defs>
				<clipPath id="SVGID_44_">
					<use xlink:href="#SVGID_43_"  overflow="visible"/>
				</clipPath>
				<path clip-path="url(#SVGID_44_)" fill="#161ABC" d="M314.931,249.32c-2.833-1.265-6.155,0.007-7.419,2.841
					c-1.265,2.833,0.007,6.155,2.841,7.419c2.833,1.264,6.155-0.007,7.419-2.841C319.037,253.906,317.764,250.584,314.931,249.32"/>
			</g>
		</g>
		<g opacity="0.06" clip-path="url(#SVGID_4_)" enable-background="new    ">
			<g>
				<defs>
					
						<rect id="SVGID_45_" x="520.628" y="293.582" transform="matrix(0.1037 0.9946 -0.9946 0.1037 764.5369 -254.9887)" width="6.237" height="6.238"/>
				</defs>
				<clipPath id="SVGID_46_">
					<use xlink:href="#SVGID_45_"  overflow="visible"/>
				</clipPath>
				<path clip-path="url(#SVGID_46_)" fill="#161ABC" d="M525.017,293.853c-1.572-0.701-3.416,0.004-4.118,1.578
					c-0.702,1.572,0.004,3.416,1.576,4.118c1.573,0.702,3.416-0.004,4.119-1.577C527.295,296.4,526.589,294.555,525.017,293.853"/>
			</g>
		</g>
		<g opacity="0.06" clip-path="url(#SVGID_4_)" enable-background="new    ">
			<g>
				<defs>
					
						<rect id="SVGID_47_" x="364.664" y="118.813" transform="matrix(0.1037 0.9946 -0.9946 0.1037 450.919 -256.5116)" width="6.237" height="6.238"/>
				</defs>
				<clipPath id="SVGID_48_">
					<use xlink:href="#SVGID_47_"  overflow="visible"/>
				</clipPath>
				<path clip-path="url(#SVGID_48_)" fill="#161ABC" d="M369.053,119.084c-1.572-0.701-3.416,0.004-4.118,1.578
					c-0.702,1.572,0.004,3.416,1.576,4.118c1.573,0.702,3.416-0.004,4.119-1.577C371.331,121.631,370.625,119.786,369.053,119.084"
					/>
			</g>
		</g>
	</g>
</g>
</svg>
