<?xml version="1.0" encoding="utf-8"?>
<!-- Generator: Adobe Illustrator 17.0.0, SVG Export Plug-In . SVG Version: 6.00 Build 0)  -->
<!DOCTYPE svg PUBLIC "-//W3C//DTD SVG 1.1//EN" "http://www.w3.org/Graphics/SVG/1.1/DTD/svg11.dtd">
<svg version="1.1" id="Layer_1" xmlns="http://www.w3.org/2000/svg" xmlns:xlink="http://www.w3.org/1999/xlink" x="0px" y="0px"
	 width="482px" height="646px" viewBox="0 0 482 646" enable-background="new 0 0 482 646" xml:space="preserve">
<g>
	<g>
		<defs>
			
				<rect id="SVGID_1_" x="-66.103" y="81.958" transform="matrix(-0.6929 0.7211 -0.7211 -0.6929 646.5316 430.9219)" width="595.188" height="542.391"/>
		</defs>
		<clipPath id="SVGID_2_">
			<use xlink:href="#SVGID_1_"  overflow="visible"/>
		</clipPath>
		<g clip-path="url(#SVGID_2_)">
			<g>
				<defs>
					
						<rect id="SVGID_3_" x="-66.103" y="81.958" transform="matrix(-0.6929 0.7211 -0.7211 -0.6929 646.5316 430.9219)" width="595.188" height="542.391"/>
				</defs>
				<clipPath id="SVGID_4_">
					<use xlink:href="#SVGID_3_"  overflow="visible"/>
				</clipPath>
				<g clip-path="url(#SVGID_4_)">
					<g opacity="0.042" enable-background="new    ">
						<g>
							<defs>
								
									<rect id="SVGID_5_" x="27.323" y="301.301" transform="matrix(-0.6929 0.7211 -0.7211 -0.6929 778.895 609.7281)" width="464.539" height="338.892"/>
							</defs>
							<clipPath id="SVGID_6_">
								<use xlink:href="#SVGID_5_"  overflow="visible"/>
							</clipPath>
							<path clip-path="url(#SVGID_6_)" fill="#161ABC" d="M207.365,632.23c37.726-11.436,75.45-22.873,113.175-34.31
								c33.08-10.028,67.785-20.934,92.855-43.179c34.641-30.724,42.219-75.012,44.267-115.034
								c1.716-33.587,0.928-67.615-11.479-97.927c-12.406-30.313-37.956-56.76-74.18-65.616
								c-33.223-8.114-73.456,0.012-103.082,20.827c-28.451,19.993-47.232,50.358-79.147,65.386
								c-19.772,9.308-42.145,11.449-62.616,19.203c-30.17,11.424-54.377,34.714-68.365,60.401
								c-13.989,25.688-18.568,53.606-18.176,80.435c0.444,29.983,7.195,59.872,25.64,83.396s49.836,39.894,85.027,38.44
								C170.122,643.478,188.921,637.826,207.365,632.23"/>
						</g>
					</g>
					<g>
						<defs>
							
								<rect id="SVGID_7_" x="-66.103" y="81.958" transform="matrix(-0.6929 0.7211 -0.7211 -0.6929 646.5316 430.9219)" width="595.188" height="542.391"/>
						</defs>
						<clipPath id="SVGID_8_">
							<use xlink:href="#SVGID_7_"  overflow="visible"/>
						</clipPath>
						<g clip-path="url(#SVGID_8_)">
							<g opacity="0.042" enable-background="new    ">
								<g>
									<defs>
										
											<rect id="SVGID_9_" x="37.397" y="37.885" transform="matrix(-0.6929 0.7211 -0.7211 -0.6929 577.1409 220.7171)" width="408.335" height="390.777"/>
									</defs>
									<clipPath id="SVGID_10_">
										<use xlink:href="#SVGID_9_"  overflow="visible"/>
									</clipPath>
									<path clip-path="url(#SVGID_10_)" fill="#F8153A" d="M351.119,374.183c14.215-36.769,28.428-73.538,42.639-110.307
										c12.465-32.241,25.236-66.303,23.143-99.754c-2.883-46.214-33.117-79.452-63.395-105.706
										c-25.412-22.031-52.71-42.358-84.235-51.245c-31.525-8.886-68.096-5.034-97.376,18.058
										c-26.848,21.185-45.215,57.892-47.052,94.053c-1.761,34.729,10.605,68.224,2.798,102.625
										c-4.837,21.311-16.925,40.258-23.418,61.164c-9.572,30.807-6.122,64.221,5.508,91.059
										c11.629,26.838,30.81,47.636,52.193,63.843c23.899,18.111,51.61,31.191,81.503,31.139
										c29.893-0.052,62.119-14.709,82.639-43.334C337.054,410.455,344.174,392.162,351.119,374.183"/>
								</g>
							</g>
							<g>
								<defs>
									
										<rect id="SVGID_11_" x="-66.103" y="81.958" transform="matrix(-0.6929 0.7211 -0.7211 -0.6929 646.5316 430.9219)" width="595.188" height="542.391"/>
								</defs>
								<clipPath id="SVGID_12_">
									<use xlink:href="#SVGID_11_"  overflow="visible"/>
								</clipPath>
								<g clip-path="url(#SVGID_12_)">
									<g opacity="0.06" enable-background="new    ">
										<g>
											<defs>
												
													<rect id="SVGID_13_" x="75.092" y="178.361" transform="matrix(-0.6929 0.7211 -0.7211 -0.6929 291.7914 262.3136)" width="29.877" height="29.877"/>
											</defs>
											<clipPath id="SVGID_14_">
												<use xlink:href="#SVGID_13_"  overflow="visible"/>
											</clipPath>
											<path clip-path="url(#SVGID_14_)" fill="#161ABC" d="M79.25,182.968c5.717-5.949,15.173-6.137,21.121-0.421
												s6.137,15.173,0.421,21.121s-15.172,6.137-21.121,0.421C73.723,198.373,73.534,188.917,79.25,182.968"/>
										</g>
									</g>
									<g>
										<defs>
											
												<rect id="SVGID_15_" x="-66.103" y="81.958" transform="matrix(-0.6929 0.7211 -0.7211 -0.6929 646.5316 430.9219)" width="595.188" height="542.391"/>
										</defs>
										<clipPath id="SVGID_16_">
											<use xlink:href="#SVGID_15_"  overflow="visible"/>
										</clipPath>
										<g clip-path="url(#SVGID_16_)">
											<g opacity="0.06" enable-background="new    ">
												<g>
													<defs>
														
															<rect id="SVGID_17_" x="134.863" y="510.945" transform="matrix(-0.6929 0.7211 -0.7211 -0.6929 641.2404 785.6351)" width="36.878" height="36.878"/>
													</defs>
													<clipPath id="SVGID_18_">
														<use xlink:href="#SVGID_17_"  overflow="visible"/>
													</clipPath>
													<path clip-path="url(#SVGID_18_)" fill="#161ABC" d="M140.012,516.638c7.056-7.344,18.727-7.575,26.07-0.52
														c7.343,7.055,7.576,18.727,0.52,26.07c-7.055,7.342-18.726,7.574-26.069,0.519S132.957,523.981,140.012,516.638"/>
												</g>
											</g>
											<g>
												<defs>
													
														<rect id="SVGID_19_" x="-66.103" y="81.958" transform="matrix(-0.6929 0.7211 -0.7211 -0.6929 646.5316 430.9219)" width="595.188" height="542.391"/>
												</defs>
												<clipPath id="SVGID_20_">
													<use xlink:href="#SVGID_19_"  overflow="visible"/>
												</clipPath>
												<g clip-path="url(#SVGID_20_)">
													<g opacity="0.06" enable-background="new    ">
														<g>
															<defs>
																
																	<rect id="SVGID_21_" x="145.401" y="255.454" transform="matrix(-0.6929 0.7211 -0.7211 -0.6929 455.9803 337.9276)" width="21.24" height="21.241"/>
															</defs>
															<clipPath id="SVGID_22_">
																<use xlink:href="#SVGID_21_"  overflow="visible"/>
															</clipPath>
															<path clip-path="url(#SVGID_22_)" fill="#161ABC" d="M145.818,269.046c-1.63-5.633,1.615-11.521,7.247-13.151
																c5.633-1.631,11.521,1.614,13.152,7.246c1.63,5.634-1.614,11.521-7.247,13.152
																C153.338,277.923,147.449,274.679,145.818,269.046"/>
														</g>
													</g>
													<g>
														<defs>
															
																<rect id="SVGID_23_" x="-66.103" y="81.958" transform="matrix(-0.6929 0.7211 -0.7211 -0.6929 646.5316 430.9219)" width="595.188" height="542.391"/>
														</defs>
														<clipPath id="SVGID_24_">
															<use xlink:href="#SVGID_23_"  overflow="visible"/>
														</clipPath>
														<g clip-path="url(#SVGID_24_)">
															<g opacity="0.06" enable-background="new    ">
																<g>
																	<defs>
																		
																			<rect id="SVGID_25_" x="160.401" y="399.696" transform="matrix(-0.6929 0.7211 -0.7211 -0.6929 577.7054 568.2035)" width="14.881" height="14.881"/>
																	</defs>
																	<clipPath id="SVGID_26_">
																		<use xlink:href="#SVGID_25_"  overflow="visible"/>
																	</clipPath>
																	<path clip-path="url(#SVGID_26_)" fill="#F8153A" d="M161.056,410.204c-1.681-3.749-0.004-8.15,3.745-9.83
																		c3.748-1.68,8.149-0.003,9.829,3.746c1.681,3.748,0.005,8.149-3.745,9.83
																		C167.137,415.63,162.736,413.953,161.056,410.204"/>
																</g>
															</g>
															<g>
																<defs>
																	
																		<rect id="SVGID_27_" x="-66.103" y="81.958" transform="matrix(-0.6929 0.7211 -0.7211 -0.6929 646.5316 430.9219)" width="595.188" height="542.391"/>
																</defs>
																<clipPath id="SVGID_28_">
																	<use xlink:href="#SVGID_27_"  overflow="visible"/>
																</clipPath>
																<g clip-path="url(#SVGID_28_)">
																	<g opacity="0.06" enable-background="new    ">
																		<g>
																			<defs>
																				
																					<rect id="SVGID_29_" x="166.799" y="157.351" transform="matrix(-0.6929 0.7211 -0.7211 -0.6929 445.18 165.9701)" width="40.889" height="40.889"/>
																			</defs>
																			<clipPath id="SVGID_30_">
																				<use xlink:href="#SVGID_29_"  overflow="visible"/>
																			</clipPath>
																			<path clip-path="url(#SVGID_30_)" fill="#F8153A" d="M168.588,186.17c-4.616-10.3-0.009-22.393,10.292-27.009
																				c10.3-4.618,22.392-0.01,27.009,10.291c4.616,10.3,0.009,22.392-10.291,27.009
																				C185.297,201.077,173.205,196.471,168.588,186.17"/>
																		</g>
																	</g>
																	<g>
																		<defs>
																			
																				<rect id="SVGID_31_" x="-66.103" y="81.958" transform="matrix(-0.6929 0.7211 -0.7211 -0.6929 646.5316 430.9219)" width="595.188" height="542.391"/>
																		</defs>
																		<clipPath id="SVGID_32_">
																			<use xlink:href="#SVGID_31_"  overflow="visible"/>
																		</clipPath>
																		<g clip-path="url(#SVGID_32_)">
																			<g opacity="0.06" enable-background="new    ">
																				<g>
																					<defs>
																						
																							<rect id="SVGID_33_" x="66.746" y="344.075" transform="matrix(-0.6929 0.7211 -0.7211 -0.6929 382.6754 543.0334)" width="17.882" height="17.881"/>
																					</defs>
																					<clipPath id="SVGID_34_">
																						<use xlink:href="#SVGID_33_"  overflow="visible"/>
																					</clipPath>
																					<path clip-path="url(#SVGID_34_)" fill="#F8153A" d="M67.527,356.696c-2.019-4.505-0.004-9.793,4.5-11.811
																						c4.505-2.019,9.793-0.004,11.812,4.5c2.019,4.504,0.005,9.793-4.501,11.812
																						C74.834,363.216,69.546,361.201,67.527,356.696"/>
																				</g>
																			</g>
																			<g>
																				<defs>
																					
																						<rect id="SVGID_35_" x="-66.103" y="81.958" transform="matrix(-0.6929 0.7211 -0.7211 -0.6929 646.5316 430.9219)" width="595.188" height="542.391"/>
																				</defs>
																				<clipPath id="SVGID_36_">
																					<use xlink:href="#SVGID_35_"  overflow="visible"/>
																				</clipPath>
																				<g clip-path="url(#SVGID_36_)">
																					<g opacity="0.06" enable-background="new    ">
																						<g>
																							<defs>
																								
																									<rect id="SVGID_37_" x="12.735" y="496.263" transform="matrix(-0.6929 0.7211 -0.7211 -0.6929 392.5277 836.2117)" width="10.88" height="10.88"/>
																							</defs>
																							<clipPath id="SVGID_38_">
																								<use xlink:href="#SVGID_37_"  overflow="visible"/>
																							</clipPath>
																							<path clip-path="url(#SVGID_38_)" fill="#F8153A" d="M13.211,503.96c-1.228-2.74-0.003-5.958,2.738-7.187
																								c2.741-1.227,5.958-0.002,7.187,2.739c1.228,2.741,0.002,5.959-2.738,7.187
																								C17.657,507.927,14.44,506.701,13.211,503.96"/>
																						</g>
																					</g>
																					<g>
																						<defs>
																							
																								<rect id="SVGID_39_" x="-66.103" y="81.958" transform="matrix(-0.6929 0.7211 -0.7211 -0.6929 646.5316 430.9219)" width="595.188" height="542.391"/>
																						</defs>
																						<clipPath id="SVGID_40_">
																							<use xlink:href="#SVGID_39_"  overflow="visible"/>
																						</clipPath>
																						<g clip-path="url(#SVGID_40_)">
																							<g opacity="0.06" enable-background="new    ">
																								<g>
																									<defs>
																										
																											<rect id="SVGID_41_" x="19.16" y="451.677" transform="matrix(-0.6929 0.7211 -0.7211 -0.6929 377.6466 759.3739)" width="15.877" height="16.877"/>
																									</defs>
																									<clipPath id="SVGID_42_">
																										<use xlink:href="#SVGID_41_"  overflow="visible"/>
																									</clipPath>
																									<path clip-path="url(#SVGID_42_)" fill="#161ABC" d="M21.011,454.298
																										c3.038-3.161,8.224-3.106,11.585,0.122c3.36,3.229,3.622,8.409,0.584,11.57
																										c-3.038,3.161-8.224,3.106-11.584-0.123C18.236,462.639,17.973,457.459,21.011,454.298"/>
																								</g>
																							</g>
																							<g>
																								<defs>
																									
																										<rect id="SVGID_43_" x="-66.103" y="81.958" transform="matrix(-0.6929 0.7211 -0.7211 -0.6929 646.5316 430.9219)" width="595.188" height="542.391"/>
																								</defs>
																								<clipPath id="SVGID_44_">
																									<use xlink:href="#SVGID_43_"  overflow="visible"/>
																								</clipPath>
																								<g clip-path="url(#SVGID_44_)">
																									<g opacity="0.06" enable-background="new    ">
																										<g>
																											<defs>
																												
																													<rect id="SVGID_45_" x="102.773" y="220.499" transform="matrix(-0.6929 0.7211 -0.7211 -0.6929 340.504 302.2014)" width="6.237" height="6.238"/>
																											</defs>
																											<clipPath id="SVGID_46_">
																												<use xlink:href="#SVGID_45_"  overflow="visible"/>
																											</clipPath>
																											<path clip-path="url(#SVGID_46_)" fill="#161ABC" d="M102.889,224.505
																												c-0.478-1.654,0.475-3.384,2.128-3.863c1.654-0.479,3.383,0.473,3.862,2.128
																												c0.479,1.654-0.474,3.383-2.128,3.862C105.097,227.112,103.368,226.158,102.889,224.505"/>
																										</g>
																									</g>
																									<g>
																										<defs>
																											
																												<rect id="SVGID_47_" x="-66.103" y="81.958" transform="matrix(-0.6929 0.7211 -0.7211 -0.6929 646.5316 430.9219)" width="595.188" height="542.391"/>
																										</defs>
																										<clipPath id="SVGID_48_">
																											<use xlink:href="#SVGID_47_"  overflow="visible"/>
																										</clipPath>
																										<g clip-path="url(#SVGID_48_)">
																											<g opacity="0.06" enable-background="new    ">
																												<g>
																													<path fill="#161ABC" d="M19.234,356.307c0.479,1.653,2.208,2.607,3.862,2.127
																														c1.654-0.479,2.607-2.208,2.128-3.862c-0.479-1.655-2.208-2.607-3.862-2.128
																														C19.709,352.923,18.756,354.653,19.234,356.307"/>
																												</g>
																											</g>
																											<g>
																												<defs>
																													
																														<rect id="SVGID_49_" x="-66.103" y="81.958" transform="matrix(-0.6929 0.7211 -0.7211 -0.6929 646.5315 430.922)" width="595.188" height="542.391"/>
																												</defs>
																												<defs>
																													
																														<rect id="SVGID_50_" x="-66.103" y="81.958" transform="matrix(-0.6929 0.7211 -0.7211 -0.6929 646.5314 430.922)" width="595.188" height="542.391"/>
																												</defs>
																												<defs>
																													
																														<rect id="SVGID_51_" x="-66.103" y="81.958" transform="matrix(-0.6929 0.7211 -0.7211 -0.6929 646.5314 430.922)" width="595.188" height="542.391"/>
																												</defs>
																												<defs>
																													
																														<rect id="SVGID_52_" x="-66.103" y="81.958" transform="matrix(-0.6929 0.7211 -0.7211 -0.6929 646.5313 430.9221)" width="595.188" height="542.391"/>
																												</defs>
																												<defs>
																													
																														<rect id="SVGID_53_" x="-66.103" y="81.958" transform="matrix(-0.6929 0.7211 -0.7211 -0.6929 646.5313 430.9221)" width="595.188" height="542.391"/>
																												</defs>
																												<defs>
																													
																														<rect id="SVGID_54_" x="-66.103" y="81.959" transform="matrix(-0.6929 0.7211 -0.7211 -0.6929 646.5312 430.9222)" width="595.188" height="542.391"/>
																												</defs>
																												<defs>
																													
																														<rect id="SVGID_55_" x="-66.103" y="81.959" transform="matrix(-0.6929 0.7211 -0.7211 -0.6929 646.5312 430.9222)" width="595.188" height="542.391"/>
																												</defs>
																												<defs>
																													
																														<rect id="SVGID_56_" x="-66.103" y="81.959" transform="matrix(-0.6929 0.7211 -0.7211 -0.6929 646.5311 430.9222)" width="595.188" height="542.391"/>
																												</defs>
																												<defs>
																													
																														<rect id="SVGID_57_" x="-66.103" y="81.959" transform="matrix(-0.6929 0.7211 -0.7211 -0.6929 646.531 430.9223)" width="595.188" height="542.391"/>
																												</defs>
																												<clipPath id="SVGID_58_">
																													<use xlink:href="#SVGID_49_"  overflow="visible"/>
																												</clipPath>
																												<clipPath id="SVGID_59_" clip-path="url(#SVGID_58_)">
																													<use xlink:href="#SVGID_50_"  overflow="visible"/>
																												</clipPath>
																												<clipPath id="SVGID_60_" clip-path="url(#SVGID_59_)">
																													<use xlink:href="#SVGID_51_"  overflow="visible"/>
																												</clipPath>
																												<clipPath id="SVGID_61_" clip-path="url(#SVGID_60_)">
																													<use xlink:href="#SVGID_52_"  overflow="visible"/>
																												</clipPath>
																												<clipPath id="SVGID_62_" clip-path="url(#SVGID_61_)">
																													<use xlink:href="#SVGID_53_"  overflow="visible"/>
																												</clipPath>
																												<clipPath id="SVGID_63_" clip-path="url(#SVGID_62_)">
																													<use xlink:href="#SVGID_54_"  overflow="visible"/>
																												</clipPath>
																												<clipPath id="SVGID_64_" clip-path="url(#SVGID_63_)">
																													<use xlink:href="#SVGID_55_"  overflow="visible"/>
																												</clipPath>
																												<clipPath id="SVGID_65_" clip-path="url(#SVGID_64_)">
																													<use xlink:href="#SVGID_56_"  overflow="visible"/>
																												</clipPath>
																												<clipPath id="SVGID_66_" clip-path="url(#SVGID_65_)">
																													<use xlink:href="#SVGID_57_"  overflow="visible"/>
																												</clipPath>
																											</g>
																										</g>
																									</g>
																								</g>
																							</g>
																						</g>
																					</g>
																				</g>
																			</g>
																		</g>
																	</g>
																</g>
															</g>
														</g>
													</g>
												</g>
											</g>
										</g>
									</g>
								</g>
							</g>
						</g>
					</g>
				</g>
			</g>
		</g>
	</g>
</g>
<rect x="19.117" y="352.294" transform="matrix(-0.6929 0.7211 -0.7211 -0.6929 293.918 585.6329)" fill="none" width="6.237" height="6.238"/>
<rect x="-66.103" y="81.958" transform="matrix(-0.6929 0.7211 -0.7211 -0.6929 646.5316 430.9219)" fill="none" width="595.188" height="542.391"/>
</svg>
