<?xml version="1.0" encoding="utf-8"?>
<!-- Generator: Adobe Illustrator 17.0.0, SVG Export Plug-In . SVG Version: 6.00 Build 0)  -->
<!DOCTYPE svg PUBLIC "-//W3C//DTD SVG 1.1//EN" "http://www.w3.org/Graphics/SVG/1.1/DTD/svg11.dtd">
<svg version="1.1" id="Layer_1" xmlns="http://www.w3.org/2000/svg" xmlns:xlink="http://www.w3.org/1999/xlink" x="0px" y="0px"
	 width="482px" height="646px" viewBox="0 0 482 646" enable-background="new 0 0 482 646" xml:space="preserve">
<g>
	<defs>
		
			<rect id="SVGID_1_" x="-66.09" y="81.991" transform="matrix(-0.6929 -0.7211 0.7211 -0.6929 137.2176 764.7952)" width="595.16" height="542.365"/>
	</defs>
	<clipPath id="SVGID_2_">
		<use xlink:href="#SVGID_1_"  overflow="visible"/>
	</clipPath>
	<g clip-path="url(#SVGID_2_)">
		<defs>
			
				<rect id="SVGID_3_" x="-66.09" y="81.991" transform="matrix(-0.6929 -0.7211 0.7211 -0.6929 137.2176 764.7952)" width="595.16" height="542.365"/>
		</defs>
		<clipPath id="SVGID_4_">
			<use xlink:href="#SVGID_3_"  overflow="visible"/>
		</clipPath>
		<g opacity="0.042" clip-path="url(#SVGID_4_)" enable-background="new    ">
			<g>
				<defs>
					
						<rect id="SVGID_5_" x="-28.875" y="301.332" transform="matrix(-0.6929 -0.7211 0.7211 -0.6929 4.8427 943.603)" width="464.517" height="338.876"/>
				</defs>
				<clipPath id="SVGID_6_">
					<use xlink:href="#SVGID_5_"  overflow="visible"/>
				</clipPath>
				<path clip-path="url(#SVGID_6_)" fill="#161ABC" d="M255.618,632.23c18.444,5.596,37.243,11.248,56.081,12.022
					c35.191,1.454,66.582-14.916,85.027-38.44c18.445-23.524,25.196-53.413,25.64-83.396c0.392-26.829-4.187-54.747-18.176-80.435
					c-13.988-25.687-38.195-48.977-68.365-60.401c-20.471-7.754-42.844-9.895-62.616-19.203
					c-31.915-15.028-50.696-45.393-79.147-65.386c-29.626-20.815-69.859-28.941-103.082-20.827
					c-36.224,8.856-61.774,35.303-74.18,65.616c-12.407,30.312-13.195,64.34-11.479,97.927c2.048,40.022,9.626,84.31,44.267,115.034
					c25.07,22.245,59.775,33.151,92.855,43.179C180.168,609.357,217.892,620.794,255.618,632.23"/>
			</g>
		</g>
		<g opacity="0.042" clip-path="url(#SVGID_4_)" enable-background="new    ">
			<g>
				<defs>
					
						<rect id="SVGID_7_" x="17.263" y="37.909" transform="matrix(-0.6929 -0.7211 0.7211 -0.6929 206.6175 554.5848)" width="408.315" height="390.758"/>
				</defs>
				<clipPath id="SVGID_8_">
					<use xlink:href="#SVGID_7_"  overflow="visible"/>
				</clipPath>
				<path clip-path="url(#SVGID_8_)" fill="#F8153A" d="M111.864,374.183c6.945,17.979,14.065,36.272,25.053,51.595
					c20.52,28.625,52.746,43.282,82.639,43.334c29.893,0.052,57.604-13.028,81.503-31.139
					c21.383-16.207,40.564-37.005,52.193-63.843c11.63-26.838,15.08-60.252,5.508-91.059c-6.493-20.906-18.581-39.853-23.418-61.164
					c-7.807-34.401,4.559-67.896,2.798-102.625c-1.837-36.161-20.204-72.868-47.052-94.053
					c-29.28-23.092-65.851-26.944-97.376-18.058c-31.525,8.887-58.823,29.214-84.235,51.245
					C79.199,84.67,48.965,117.908,46.082,164.122c-2.093,33.451,10.678,67.513,23.143,99.754
					C83.436,300.645,97.649,337.414,111.864,374.183"/>
			</g>
		</g>
		<g opacity="0.06" clip-path="url(#SVGID_4_)" enable-background="new    ">
			<g>
				<defs>
					
						<rect id="SVGID_9_" x="358.023" y="178.38" transform="matrix(-0.6929 -0.7211 0.7211 -0.6929 491.9759 596.1923)" width="29.876" height="29.876"/>
				</defs>
				<clipPath id="SVGID_10_">
					<use xlink:href="#SVGID_9_"  overflow="visible"/>
				</clipPath>
				<path clip-path="url(#SVGID_10_)" fill="#161ABC" d="M383.733,182.968c5.716,5.949,5.527,15.405-0.421,21.121
					c-5.949,5.716-15.405,5.527-21.121-0.421s-5.527-15.405,0.421-21.121C368.56,176.831,378.016,177.019,383.733,182.968"/>
			</g>
		</g>
		<g opacity="0.06" clip-path="url(#SVGID_4_)" enable-background="new    ">
			<g>
				<defs>
					
						<rect id="SVGID_11_" x="291.238" y="510.975" transform="matrix(-0.6929 -0.7211 0.7211 -0.6929 142.4958 1119.5212)" width="36.876" height="36.876"/>
				</defs>
				<clipPath id="SVGID_12_">
					<use xlink:href="#SVGID_11_"  overflow="visible"/>
				</clipPath>
				<path clip-path="url(#SVGID_12_)" fill="#161ABC" d="M322.971,516.638c7.055,7.343,6.822,19.014-0.521,26.069
					s-19.014,6.823-26.069-0.519c-7.056-7.343-6.823-19.015,0.52-26.07S315.915,509.294,322.971,516.638"/>
			</g>
		</g>
		<g opacity="0.06" clip-path="url(#SVGID_4_)" enable-background="new    ">
			<g>
				<defs>
					
						<rect id="SVGID_13_" x="296.346" y="255.474" transform="matrix(-0.6929 -0.7211 0.7211 -0.6929 327.778 671.8041)" width="21.239" height="21.24"/>
				</defs>
				<clipPath id="SVGID_14_">
					<use xlink:href="#SVGID_13_"  overflow="visible"/>
				</clipPath>
				<path clip-path="url(#SVGID_14_)" fill="#161ABC" d="M317.165,269.046c-1.631,5.633-7.52,8.877-13.152,7.247
					c-5.633-1.631-8.877-7.518-7.247-13.152c1.631-5.632,7.519-8.877,13.152-7.246C315.55,257.525,318.795,263.413,317.165,269.046"
					/>
			</g>
		</g>
		<g opacity="0.06" clip-path="url(#SVGID_4_)" enable-background="new    ">
			<g>
				<defs>
					
						<rect id="SVGID_15_" x="287.701" y="399.722" transform="matrix(-0.6929 -0.7211 0.7211 -0.6929 206.0404 902.0854)" width="14.88" height="14.88"/>
				</defs>
				<clipPath id="SVGID_16_">
					<use xlink:href="#SVGID_15_"  overflow="visible"/>
				</clipPath>
				<path clip-path="url(#SVGID_16_)" fill="#F8153A" d="M301.927,410.204c-1.68,3.749-6.081,5.426-9.829,3.746
					c-3.75-1.681-5.426-6.082-3.745-9.83c1.68-3.749,6.081-5.426,9.829-3.746C301.931,402.054,303.608,406.455,301.927,410.204"/>
			</g>
		</g>
		<g opacity="0.06" clip-path="url(#SVGID_4_)" enable-background="new    ">
			<g>
				<defs>
					
						<rect id="SVGID_17_" x="255.301" y="157.368" transform="matrix(-0.6929 -0.7211 0.7211 -0.6929 338.5836 499.8407)" width="40.887" height="40.887"/>
				</defs>
				<clipPath id="SVGID_18_">
					<use xlink:href="#SVGID_17_"  overflow="visible"/>
				</clipPath>
				<path clip-path="url(#SVGID_18_)" fill="#F8153A" d="M294.395,186.17c-4.617,10.301-16.709,14.907-27.01,10.291
					c-10.3-4.617-14.907-16.709-10.291-27.009c4.617-10.301,16.709-14.909,27.009-10.291
					C294.404,163.777,299.011,175.87,294.395,186.17"/>
			</g>
		</g>
		<g opacity="0.06" clip-path="url(#SVGID_4_)" enable-background="new    ">
			<g>
				<defs>
					
						<rect id="SVGID_19_" x="378.359" y="344.1" transform="matrix(-0.6929 -0.7211 0.7211 -0.6929 401.0789 876.9188)" width="17.881" height="17.88"/>
				</defs>
				<clipPath id="SVGID_20_">
					<use xlink:href="#SVGID_19_"  overflow="visible"/>
				</clipPath>
				<path clip-path="url(#SVGID_20_)" fill="#F8153A" d="M395.456,356.696c-2.019,4.505-7.307,6.52-11.811,4.501
					c-4.506-2.019-6.52-7.308-4.501-11.812c2.019-4.504,7.307-6.519,11.812-4.5C395.46,346.903,397.475,352.191,395.456,356.696"/>
			</g>
		</g>
		<g opacity="0.06" clip-path="url(#SVGID_4_)" enable-background="new    ">
			<g>
				<defs>
					
						<rect id="SVGID_21_" x="439.37" y="496.296" transform="matrix(-0.6929 -0.7211 0.7211 -0.6929 391.2158 1170.1078)" width="10.879" height="10.879"/>
				</defs>
				<clipPath id="SVGID_22_">
					<use xlink:href="#SVGID_21_"  overflow="visible"/>
				</clipPath>
				<path clip-path="url(#SVGID_22_)" fill="#F8153A" d="M449.772,503.96c-1.229,2.741-4.446,3.967-7.187,2.739
					c-2.74-1.228-3.966-4.446-2.738-7.187c1.229-2.741,4.446-3.966,7.187-2.739C449.775,498.002,451,501.22,449.772,503.96"/>
			</g>
		</g>
		<g opacity="0.06" clip-path="url(#SVGID_4_)" enable-background="new    ">
			<g>
				<defs>
					
						<rect id="SVGID_23_" x="427.949" y="451.707" transform="matrix(-0.6929 -0.7211 0.7211 -0.6929 406.1006 1093.2676)" width="15.876" height="16.876"/>
				</defs>
				<clipPath id="SVGID_24_">
					<use xlink:href="#SVGID_23_"  overflow="visible"/>
				</clipPath>
				<path clip-path="url(#SVGID_24_)" fill="#161ABC" d="M441.972,454.298c3.038,3.161,2.775,8.341-0.585,11.569
					c-3.36,3.229-8.546,3.284-11.584,0.123c-3.038-3.161-2.776-8.341,0.584-11.57C433.748,451.192,438.934,451.137,441.972,454.298"
					/>
			</g>
		</g>
		<g opacity="0.06" clip-path="url(#SVGID_4_)" enable-background="new    ">
			<g>
				<defs>
					
						<rect id="SVGID_25_" x="353.98" y="220.518" transform="matrix(-0.6929 -0.7211 0.7211 -0.6929 443.2604 636.0802)" width="6.237" height="6.238"/>
				</defs>
				<clipPath id="SVGID_26_">
					<use xlink:href="#SVGID_25_"  overflow="visible"/>
				</clipPath>
				<path clip-path="url(#SVGID_26_)" fill="#161ABC" d="M360.094,224.505c-0.479,1.653-2.208,2.607-3.862,2.127
					c-1.654-0.479-2.607-2.208-2.128-3.862c0.479-1.655,2.208-2.607,3.862-2.128C359.619,221.121,360.572,222.851,360.094,224.505"
					/>
			</g>
		</g>
		<g opacity="0.06" clip-path="url(#SVGID_4_)" enable-background="new    ">
			<g>
				<defs>
					
						<rect id="SVGID_27_" x="437.635" y="352.321" transform="matrix(-0.6929 -0.7211 0.7211 -0.6929 489.8377 919.5244)" width="6.237" height="6.238"/>
				</defs>
				<clipPath id="SVGID_28_">
					<use xlink:href="#SVGID_27_"  overflow="visible"/>
				</clipPath>
				<path clip-path="url(#SVGID_28_)" fill="#161ABC" d="M443.749,356.307c-0.479,1.653-2.208,2.607-3.862,2.127
					c-1.654-0.479-2.607-2.208-2.128-3.862c0.479-1.655,2.208-2.607,3.862-2.128C443.274,352.923,444.227,354.653,443.749,356.307"
					/>
			</g>
		</g>
		<g opacity="0.06" clip-path="url(#SVGID_4_)" enable-background="new    ">
			<g>
				<defs>
					
						<rect id="SVGID_29_" x="348.383" y="536.546" transform="matrix(-0.6929 -0.7211 0.7211 -0.6929 205.9065 1167.0359)" width="6.237" height="6.238"/>
				</defs>
				<clipPath id="SVGID_30_">
					<use xlink:href="#SVGID_29_"  overflow="visible"/>
				</clipPath>
				<path clip-path="url(#SVGID_30_)" fill="#161ABC" d="M354.496,540.533c-0.479,1.653-2.208,2.607-3.862,2.127
					c-1.654-0.479-2.607-2.208-2.128-3.862c0.479-1.655,2.208-2.607,3.862-2.128C354.021,537.149,354.975,538.879,354.496,540.533"
					/>
			</g>
		</g>
		<g opacity="0.06" clip-path="url(#SVGID_4_)" enable-background="new    ">
			<g>
				<defs>
					
						<rect id="SVGID_31_" x="467.431" y="454.052" transform="matrix(-0.6929 -0.7211 0.7211 -0.6929 466.9242 1113.2262)" width="6.237" height="6.238"/>
				</defs>
				<clipPath id="SVGID_32_">
					<use xlink:href="#SVGID_31_"  overflow="visible"/>
				</clipPath>
				<path clip-path="url(#SVGID_32_)" fill="#161ABC" d="M473.545,458.038c-0.479,1.653-2.208,2.607-3.862,2.127
					c-1.654-0.479-2.607-2.208-2.128-3.862c0.479-1.655,2.208-2.607,3.862-2.128C473.07,454.654,474.024,456.384,473.545,458.038"/>
			</g>
		</g>
		<g opacity="0.06" clip-path="url(#SVGID_4_)" enable-background="new    ">
			<g>
				<defs>
					
						<rect id="SVGID_33_" x="307.482" y="146.624" transform="matrix(-0.6929 -0.7211 0.7211 -0.6929 417.828 477.4586)" width="6.237" height="6.238"/>
				</defs>
				<clipPath id="SVGID_34_">
					<use xlink:href="#SVGID_33_"  overflow="visible"/>
				</clipPath>
				<path clip-path="url(#SVGID_34_)" fill="#161ABC" d="M313.595,150.61c-0.479,1.653-2.208,2.607-3.862,2.127
					c-1.654-0.479-2.607-2.208-2.128-3.862c0.479-1.655,2.208-2.607,3.862-2.129C313.12,147.227,314.074,148.956,313.595,150.61"/>
			</g>
		</g>
		<g opacity="0.06" clip-path="url(#SVGID_4_)" enable-background="new    ">
			<g>
				<defs>
					
						<rect id="SVGID_35_" x="372.725" y="503.827" transform="matrix(-0.6929 -0.7211 0.7211 -0.6929 277.997 1147.3063)" width="21.239" height="21.24"/>
				</defs>
				<clipPath id="SVGID_36_">
					<use xlink:href="#SVGID_35_"  overflow="visible"/>
				</clipPath>
				<path clip-path="url(#SVGID_36_)" fill="#161ABC" d="M393.544,517.399c-1.631,5.633-7.52,8.877-13.152,7.247
					c-5.633-1.631-8.877-7.518-7.247-13.152c1.631-5.632,7.519-8.877,13.152-7.246S395.173,511.766,393.544,517.399"/>
			</g>
		</g>
		<g opacity="0.06" clip-path="url(#SVGID_4_)" enable-background="new    ">
			<g>
				<defs>
					
						<rect id="SVGID_37_" x="353.733" y="146.85" transform="matrix(-0.6929 -0.7211 0.7211 -0.6929 503.0793 528.8676)" width="20.882" height="20.882"/>
				</defs>
				<clipPath id="SVGID_38_">
					<use xlink:href="#SVGID_37_"  overflow="visible"/>
				</clipPath>
				<path clip-path="url(#SVGID_38_)" fill="#F8153A" d="M373.7,161.561c-2.358,5.26-8.534,7.614-13.795,5.255
					c-5.26-2.357-7.612-8.533-5.255-13.794s8.533-7.614,13.794-5.256C373.704,150.125,376.057,156.3,373.7,161.561"/>
			</g>
		</g>
		<g opacity="0.06" clip-path="url(#SVGID_4_)" enable-background="new    ">
			<g>
				<defs>
					
						<rect id="SVGID_39_" x="459.511" y="473.167" transform="matrix(-0.6929 -0.7211 0.7211 -0.6929 443.9328 1150.3052)" width="14.88" height="14.88"/>
				</defs>
				<clipPath id="SVGID_40_">
					<use xlink:href="#SVGID_39_"  overflow="visible"/>
				</clipPath>
				<path clip-path="url(#SVGID_40_)" fill="#F8153A" d="M473.738,483.649c-1.68,3.749-6.081,5.426-9.829,3.746
					c-3.75-1.681-5.426-6.082-3.746-9.831c1.681-3.748,6.082-5.425,9.83-3.745C473.741,475.499,475.419,479.901,473.738,483.649"/>
			</g>
		</g>
		<g opacity="0.06" clip-path="url(#SVGID_4_)" enable-background="new    ">
			<g>
				<defs>
					
						<rect id="SVGID_41_" x="398.14" y="305.633" transform="matrix(-0.6929 -0.7211 0.7211 -0.6929 469.1059 842.9659)" width="31.884" height="31.885"/>
				</defs>
				<clipPath id="SVGID_42_">
					<use xlink:href="#SVGID_41_"  overflow="visible"/>
				</clipPath>
				<path clip-path="url(#SVGID_42_)" fill="#F8153A" d="M428.626,328.094c-3.6,8.033-13.031,11.625-21.063,8.025
					c-8.032-3.6-11.625-13.03-8.025-21.063c3.6-8.032,13.03-11.625,21.063-8.025C428.633,310.632,432.226,320.062,428.626,328.094"
					/>
			</g>
		</g>
		<g opacity="0.06" clip-path="url(#SVGID_4_)" enable-background="new    ">
			<g>
				<defs>
					
						<rect id="SVGID_43_" x="279.371" y="340.581" transform="matrix(-0.6929 -0.7211 0.7211 -0.6929 232.8133 791.5671)" width="11.237" height="11.238"/>
				</defs>
				<clipPath id="SVGID_44_">
					<use xlink:href="#SVGID_43_"  overflow="visible"/>
				</clipPath>
				<path clip-path="url(#SVGID_44_)" fill="#161ABC" d="M290.386,347.762c-0.862,2.981-3.978,4.697-6.958,3.835
					c-2.981-0.862-4.697-3.978-3.835-6.958c0.863-2.98,3.978-4.697,6.958-3.835C289.532,341.666,291.248,344.782,290.386,347.762"/>
			</g>
		</g>
		<g opacity="0.06" clip-path="url(#SVGID_4_)" enable-background="new    ">
			<g>
				<defs>
					
						<rect id="SVGID_45_" x="385.828" y="154.552" transform="matrix(-0.6929 -0.7211 0.7211 -0.6929 544.7407 547.3731)" width="6.237" height="6.238"/>
				</defs>
				<clipPath id="SVGID_46_">
					<use xlink:href="#SVGID_45_"  overflow="visible"/>
				</clipPath>
				<path clip-path="url(#SVGID_46_)" fill="#161ABC" d="M391.942,158.538c-0.479,1.653-2.208,2.607-3.862,2.127
					c-1.654-0.479-2.607-2.208-2.128-3.862c0.479-1.655,2.208-2.607,3.862-2.129C391.467,155.155,392.42,156.885,391.942,158.538"/>
			</g>
		</g>
		<g opacity="0.06" clip-path="url(#SVGID_4_)" enable-background="new    ">
			<g>
				<defs>
					
						<rect id="SVGID_47_" x="418.685" y="386.478" transform="matrix(-0.6929 -0.7211 0.7211 -0.6929 433.1291 963.6833)" width="6.237" height="6.238"/>
				</defs>
				<clipPath id="SVGID_48_">
					<use xlink:href="#SVGID_47_"  overflow="visible"/>
				</clipPath>
				<path clip-path="url(#SVGID_48_)" fill="#161ABC" d="M424.799,390.464c-0.479,1.653-2.208,2.607-3.862,2.127
					c-1.654-0.479-2.607-2.208-2.128-3.862c0.479-1.655,2.208-2.607,3.862-2.129C424.324,387.08,425.277,388.81,424.799,390.464"/>
			</g>
		</g>
	</g>
</g>
</svg>
