<?xml version="1.0" encoding="utf-8"?>
<!-- Generator: Adobe Illustrator 17.0.0, SVG Export Plug-In . SVG Version: 6.00 Build 0)  -->
<!DOCTYPE svg PUBLIC "-//W3C//DTD SVG 1.1//EN" "http://www.w3.org/Graphics/SVG/1.1/DTD/svg11.dtd">
<svg version="1.1" id="Layer_1" xmlns="http://www.w3.org/2000/svg" xmlns:xlink="http://www.w3.org/1999/xlink" x="0px" y="0px"
	 width="474px" height="653px" viewBox="0 0 474 653" enable-background="new 0 0 474 653" xml:space="preserve">
<g>
	<defs>
		
			<rect id="SVGID_1_" x="-65" y="27.635" transform="matrix(-0.6591 0.7521 -0.7521 -0.6591 610.6018 320.8374)" width="595.16" height="542.365"/>
	</defs>
	<clipPath id="SVGID_2_">
		<use xlink:href="#SVGID_1_"  overflow="visible"/>
	</clipPath>
	<g clip-path="url(#SVGID_2_)">
		<defs>
			
				<rect id="SVGID_3_" x="-65" y="27.635" transform="matrix(-0.6591 0.7521 -0.7521 -0.6591 610.6018 320.8374)" width="595.16" height="542.365"/>
		</defs>
		<clipPath id="SVGID_4_">
			<use xlink:href="#SVGID_3_"  overflow="visible"/>
		</clipPath>
		<g opacity="0.042" clip-path="url(#SVGID_4_)" enable-background="new    ">
			<g>
				<defs>
					
						<rect id="SVGID_5_" x="-33.148" y="13.196" transform="matrix(-0.6591 0.7521 -0.7521 -0.6591 467.6936 153.2532)" width="464.517" height="338.876"/>
				</defs>
				<clipPath id="SVGID_6_">
					<use xlink:href="#SVGID_5_"  overflow="visible"/>
				</clipPath>
				<path clip-path="url(#SVGID_6_)" fill="#161ABC" d="M243.885,18.948c18.168-6.436,36.688-12.944,55.471-14.581
					c35.088-3.066,67.196,11.847,86.7,34.5C405.56,61.521,413.675,91.069,415.494,121c1.622,26.783-1.672,54.882-14.468,81.184
					c-12.796,26.301-35.909,50.677-65.523,63.473c-20.094,8.685-42.345,11.849-61.669,22.055
					c-31.193,16.476-48.561,47.67-76.065,68.947c-28.641,22.152-68.458,32.114-102.018,25.532
					c-36.592-7.185-63.328-32.433-77.111-62.145C4.855,290.334,2.507,256.379,2.681,222.748c0.21-40.073,5.75-84.663,38.945-116.943
					c24.024-23.371,58.192-35.857,90.777-47.392C169.563,45.258,206.724,32.103,243.885,18.948"/>
			</g>
		</g>
		<g opacity="0.042" clip-path="url(#SVGID_4_)" enable-background="new    ">
			<g>
				<defs>
					
						<rect id="SVGID_7_" x="23.862" y="223.66" transform="matrix(-0.6591 0.7521 -0.7521 -0.6591 693.4519 523.7222)" width="408.315" height="390.758"/>
				</defs>
				<clipPath id="SVGID_8_">
					<use xlink:href="#SVGID_7_"  overflow="visible"/>
				</clipPath>
				<path clip-path="url(#SVGID_8_)" fill="#F8153A" d="M112.116,283.316c6.113-18.278,12.387-36.879,22.661-52.69
					c19.185-29.536,50.705-45.655,80.565-47.078c29.859-1.423,58.14,10.373,82.845,27.368
					c22.104,15.209,42.218,35.106,55.066,61.382c12.849,26.276,17.827,59.497,9.678,90.711
					c-5.528,21.182-16.733,40.664-20.589,62.173c-6.221,34.723,7.668,67.616,7.501,102.388
					c-0.177,36.208-16.841,73.718-42.689,96.112c-28.19,24.411-64.546,29.935-96.445,22.505
					c-31.899-7.432-60.101-26.486-86.496-47.328c-31.449-24.838-63.175-56.654-68.176-102.687
					c-3.625-33.319,7.57-67.932,18.544-100.71C87.09,358.081,99.603,320.699,112.116,283.316"/>
			</g>
		</g>
		<g opacity="0.06" clip-path="url(#SVGID_4_)" enable-background="new    ">
			<g>
				<defs>
					
						<rect id="SVGID_9_" x="366.295" y="437.079" transform="matrix(-0.6591 0.7521 -0.7521 -0.6591 972.4465 463.2051)" width="29.876" height="29.876"/>
				</defs>
				<clipPath id="SVGID_10_">
					<use xlink:href="#SVGID_9_"  overflow="visible"/>
				</clipPath>
				<path clip-path="url(#SVGID_10_)" fill="#161ABC" d="M392.468,461.862c5.437-6.205,4.815-15.642-1.39-21.08
					s-15.642-4.815-21.08,1.39s-4.815,15.642,1.39,21.08S387.031,468.067,392.468,461.862"/>
			</g>
		</g>
		<g opacity="0.06" clip-path="url(#SVGID_4_)" enable-background="new    ">
			<g>
				<defs>
					
						<rect id="SVGID_11_" x="284.164" y="100.74" transform="matrix(-0.6591 0.7521 -0.7521 -0.6591 591.6682 -29.858)" width="36.876" height="36.876"/>
				</defs>
				<clipPath id="SVGID_12_">
					<use xlink:href="#SVGID_11_"  overflow="visible"/>
				</clipPath>
				<path clip-path="url(#SVGID_12_)" fill="#161ABC" d="M316.469,131.33c6.711-7.658,5.943-19.307-1.716-26.018
					c-7.658-6.711-19.307-5.944-26.018,1.714c-6.712,7.659-5.943,19.308,1.715,26.019
					C298.108,139.757,309.757,138.99,316.469,131.33"/>
			</g>
		</g>
		<g opacity="0.06" clip-path="url(#SVGID_4_)" enable-background="new    ">
			<g>
				<defs>
					
						<rect id="SVGID_13_" x="301.35" y="371.724" transform="matrix(-0.6591 0.7521 -0.7521 -0.6591 805.1338 399.7061)" width="21.239" height="21.24"/>
				</defs>
				<clipPath id="SVGID_14_">
					<use xlink:href="#SVGID_13_"  overflow="visible"/>
				</clipPath>
				<path clip-path="url(#SVGID_14_)" fill="#161ABC" d="M322.023,378.927c-1.888-5.552-7.919-8.523-13.471-6.636
					c-5.552,1.887-8.523,7.918-6.636,13.471c1.887,5.551,7.918,8.522,13.47,6.636S323.909,384.48,322.023,378.927"/>
			</g>
		</g>
		<g opacity="0.06" clip-path="url(#SVGID_4_)" enable-background="new    ">
			<g>
				<defs>
					
						<rect id="SVGID_15_" x="286.248" y="234.528" transform="matrix(-0.6591 0.7521 -0.7521 -0.6591 669.2275 180.5614)" width="14.88" height="14.88"/>
				</defs>
				<clipPath id="SVGID_16_">
					<use xlink:href="#SVGID_15_"  overflow="visible"/>
				</clipPath>
				<path clip-path="url(#SVGID_16_)" fill="#F8153A" d="M300.328,238.618c-1.85-3.668-6.323-5.141-9.991-3.291
					c-3.668,1.851-5.141,6.325-3.291,9.991c1.85,3.668,6.323,5.141,9.991,3.291C300.705,246.758,302.179,242.285,300.328,238.618"/>
			</g>
		</g>
		<g opacity="0.06" clip-path="url(#SVGID_4_)" enable-background="new    ">
			<g>
				<defs>
					
						<rect id="SVGID_17_" x="264.387" y="451.523" transform="matrix(-0.6591 0.7521 -0.7521 -0.6591 827.5112 568.8058)" width="40.887" height="40.887"/>
				</defs>
				<clipPath id="SVGID_18_">
					<use xlink:href="#SVGID_17_"  overflow="visible"/>
				</clipPath>
				<path clip-path="url(#SVGID_18_)" fill="#F8153A" d="M303.077,462.76c-5.084-10.078-17.375-14.125-27.454-9.041
					c-10.078,5.085-14.125,17.375-9.041,27.452c5.084,10.078,17.375,14.127,27.453,9.042
					C304.113,485.13,308.161,472.839,303.077,462.76"/>
			</g>
		</g>
		<g opacity="0.06" clip-path="url(#SVGID_4_)" enable-background="new    ">
			<g>
				<defs>
					
						<rect id="SVGID_19_" x="379.292" y="282.866" transform="matrix(-0.6591 0.7521 -0.7521 -0.6591 863.5652 192.1402)" width="17.881" height="17.88"/>
				</defs>
				<clipPath id="SVGID_20_">
					<use xlink:href="#SVGID_19_"  overflow="visible"/>
				</clipPath>
				<path clip-path="url(#SVGID_20_)" fill="#F8153A" d="M396.212,287.78c-2.223-4.408-7.598-6.178-12.005-3.954
					c-4.409,2.224-6.178,7.599-3.954,12.006c2.223,4.406,7.599,6.177,12.006,3.954C396.665,297.562,398.436,292.187,396.212,287.78"
					/>
			</g>
		</g>
		<g opacity="0.06" clip-path="url(#SVGID_4_)" enable-background="new    ">
			<g>
				<defs>
					
						<rect id="SVGID_21_" x="433.423" y="135.19" transform="matrix(-0.6591 0.7521 -0.7521 -0.6591 833.8667 -96.7489)" width="10.879" height="10.879"/>
				</defs>
				<clipPath id="SVGID_22_">
					<use xlink:href="#SVGID_21_"  overflow="visible"/>
				</clipPath>
				<path clip-path="url(#SVGID_22_)" fill="#F8153A" d="M443.718,138.18c-1.353-2.682-4.623-3.759-7.305-2.406
					c-2.681,1.352-3.758,4.624-2.406,7.305c1.353,2.682,4.624,3.758,7.305,2.406C443.994,144.131,445.07,140.861,443.718,138.18"/>
			</g>
		</g>
		<g opacity="0.06" clip-path="url(#SVGID_4_)" enable-background="new    ">
			<g>
				<defs>
					
						<rect id="SVGID_23_" x="423.919" y="174.147" transform="matrix(-0.6591 0.7521 -0.7521 -0.6591 853.7979 -21.8729)" width="15.876" height="16.876"/>
				</defs>
				<clipPath id="SVGID_24_">
					<use xlink:href="#SVGID_23_"  overflow="visible"/>
				</clipPath>
				<path clip-path="url(#SVGID_24_)" fill="#161ABC" d="M438.203,188.146c2.889-3.297,2.39-8.459-1.115-11.53
					s-8.688-2.889-11.577,0.408c-2.889,3.297-2.39,8.46,1.114,11.531C430.13,191.627,435.313,191.444,438.203,188.146"/>
			</g>
		</g>
		<g opacity="0.06" clip-path="url(#SVGID_4_)" enable-background="new    ">
			<g>
				<defs>
					
						<rect id="SVGID_25_" x="360.878" y="419.338" transform="matrix(-0.6591 0.7521 -0.7521 -0.6591 921.6188 427.127)" width="6.237" height="6.238"/>
				</defs>
				<clipPath id="SVGID_26_">
					<use xlink:href="#SVGID_25_"  overflow="visible"/>
				</clipPath>
				<path clip-path="url(#SVGID_26_)" fill="#161ABC" d="M366.949,421.454c-0.555-1.629-2.325-2.503-3.956-1.948
					c-1.63,0.554-2.503,2.325-1.949,3.955c0.555,1.631,2.325,2.503,3.955,1.949C366.63,424.856,367.503,423.084,366.949,421.454"/>
			</g>
		</g>
		<g opacity="0.06" clip-path="url(#SVGID_4_)" enable-background="new    ">
			<g>
				<defs>
					
						<rect id="SVGID_27_" x="438.401" y="283.838" transform="matrix(-0.6591 0.7521 -0.7521 -0.6591 948.3254 144.02)" width="6.237" height="6.238"/>
				</defs>
				<clipPath id="SVGID_28_">
					<use xlink:href="#SVGID_27_"  overflow="visible"/>
				</clipPath>
				<path clip-path="url(#SVGID_28_)" fill="#161ABC" d="M444.472,285.953c-0.555-1.629-2.325-2.503-3.956-1.948
					c-1.63,0.554-2.503,2.325-1.949,3.955c0.555,1.631,2.325,2.503,3.955,1.949C444.152,289.355,445.026,287.584,444.472,285.953"/>
			</g>
		</g>
		<g opacity="0.06" clip-path="url(#SVGID_4_)" enable-background="new    ">
			<g>
				<defs>
					
						<rect id="SVGID_29_" x="340.794" y="103.9" transform="matrix(-0.6591 0.7521 -0.7521 -0.6591 651.0599 -81.1009)" width="6.237" height="6.238"/>
				</defs>
				<clipPath id="SVGID_30_">
					<use xlink:href="#SVGID_29_"  overflow="visible"/>
				</clipPath>
				<path clip-path="url(#SVGID_30_)" fill="#161ABC" d="M346.865,106.015c-0.555-1.629-2.325-2.503-3.956-1.948
					c-1.63,0.554-2.503,2.325-1.949,3.955c0.555,1.631,2.325,2.503,3.955,1.949C346.545,109.417,347.419,107.645,346.865,106.015"/>
			</g>
		</g>
		<g opacity="0.06" clip-path="url(#SVGID_4_)" enable-background="new    ">
			<g>
				<defs>
					
						<rect id="SVGID_31_" x="463.501" y="180.848" transform="matrix(-0.6591 0.7521 -0.7521 -0.6591 912.5102 -45.7248)" width="6.237" height="6.238"/>
				</defs>
				<clipPath id="SVGID_32_">
					<use xlink:href="#SVGID_31_"  overflow="visible"/>
				</clipPath>
				<path clip-path="url(#SVGID_32_)" fill="#161ABC" d="M469.572,182.963c-0.555-1.629-2.325-2.503-3.956-1.948
					c-1.63,0.554-2.503,2.325-1.949,3.955c0.555,1.631,2.325,2.503,3.955,1.949C469.252,186.365,470.125,184.593,469.572,182.963"/>
			</g>
		</g>
		<g opacity="0.06" clip-path="url(#SVGID_4_)" enable-background="new    ">
			<g>
				<defs>
					
						<rect id="SVGID_33_" x="317.818" y="495.287" transform="matrix(-0.6591 0.7521 -0.7521 -0.6591 907.2985 585.5167)" width="6.237" height="6.238"/>
				</defs>
				<clipPath id="SVGID_34_">
					<use xlink:href="#SVGID_33_"  overflow="visible"/>
				</clipPath>
				<path clip-path="url(#SVGID_34_)" fill="#161ABC" d="M323.889,497.403c-0.555-1.629-2.325-2.503-3.956-1.948
					c-1.63,0.554-2.503,2.325-1.949,3.955c0.555,1.631,2.325,2.503,3.956,1.949C323.569,500.805,324.443,499.033,323.889,497.403"/>
			</g>
		</g>
		<g opacity="0.06" clip-path="url(#SVGID_4_)" enable-background="new    ">
			<g>
				<defs>
					
						<rect id="SVGID_35_" x="366.259" y="120.13" transform="matrix(-0.6591 0.7521 -0.7521 -0.6591 723.6012 -66.5227)" width="21.239" height="21.24"/>
				</defs>
				<clipPath id="SVGID_36_">
					<use xlink:href="#SVGID_35_"  overflow="visible"/>
				</clipPath>
				<path clip-path="url(#SVGID_36_)" fill="#161ABC" d="M386.932,127.333c-1.888-5.552-7.919-8.523-13.471-6.636
					c-5.553,1.887-8.523,7.918-6.636,13.471c1.887,5.551,7.918,8.522,13.47,6.636C385.847,138.916,388.818,132.886,386.932,127.333"
					/>
			</g>
		</g>
		<g opacity="0.06" clip-path="url(#SVGID_4_)" enable-background="new    ">
			<g>
				<defs>
					
						<rect id="SVGID_37_" x="363.667" y="477.968" transform="matrix(-0.6591 0.7521 -0.7521 -0.6591 987.9954 528.9408)" width="20.882" height="20.882"/>
				</defs>
				<clipPath id="SVGID_38_">
					<use xlink:href="#SVGID_37_"  overflow="visible"/>
				</clipPath>
				<path clip-path="url(#SVGID_38_)" fill="#F8153A" d="M383.428,483.707c-2.597-5.146-8.874-7.214-14.022-4.617
					c-5.147,2.596-7.213,8.873-4.617,14.02s8.873,7.214,14.02,4.618C383.957,495.131,386.024,488.855,383.428,483.707"/>
			</g>
		</g>
		<g opacity="0.06" clip-path="url(#SVGID_4_)" enable-background="new    ">
			<g>
				<defs>
					
						<rect id="SVGID_39_" x="454.509" y="153.281" transform="matrix(-0.6591 0.7521 -0.7521 -0.6591 887.2793 -80.7798)" width="14.88" height="14.88"/>
				</defs>
				<clipPath id="SVGID_40_">
					<use xlink:href="#SVGID_39_"  overflow="visible"/>
				</clipPath>
				<path clip-path="url(#SVGID_40_)" fill="#F8153A" d="M468.589,157.37c-1.85-3.668-6.323-5.141-9.991-3.291
					c-3.669,1.851-5.141,6.325-3.291,9.992c1.851,3.667,6.324,5.14,9.991,3.291C468.966,165.511,470.44,161.038,468.589,157.37"/>
			</g>
		</g>
		<g opacity="0.06" clip-path="url(#SVGID_4_)" enable-background="new    ">
			<g>
				<defs>
					
						<rect id="SVGID_41_" x="400.487" y="306.066" transform="matrix(-0.6591 0.7521 -0.7521 -0.6591 933.0616 221.0423)" width="31.884" height="31.885"/>
				</defs>
				<clipPath id="SVGID_42_">
					<use xlink:href="#SVGID_41_"  overflow="visible"/>
				</clipPath>
				<path clip-path="url(#SVGID_42_)" fill="#F8153A" d="M430.659,314.83c-3.965-7.86-13.55-11.015-21.409-7.051
					c-7.858,3.965-11.016,13.549-7.051,21.409c3.965,7.858,13.55,11.015,21.409,7.051
					C431.467,332.273,434.623,322.688,430.659,314.83"/>
			</g>
		</g>
		<g opacity="0.06" clip-path="url(#SVGID_4_)" enable-background="new    ">
			<g>
				<defs>
					
						<rect id="SVGID_43_" x="280.725" y="297.711" transform="matrix(-0.6591 0.7521 -0.7521 -0.6591 703.192 287.8896)" width="11.237" height="11.238"/>
				</defs>
				<clipPath id="SVGID_44_">
					<use xlink:href="#SVGID_43_"  overflow="visible"/>
				</clipPath>
				<path clip-path="url(#SVGID_44_)" fill="#161ABC" d="M291.662,301.523c-0.998-2.938-4.189-4.51-7.127-3.511
					c-2.938,0.998-4.51,4.189-3.511,7.127c0.999,2.937,4.189,4.51,7.127,3.511C291.089,307.651,292.66,304.46,291.662,301.523"/>
			</g>
		</g>
		<g opacity="0.06" clip-path="url(#SVGID_4_)" enable-background="new    ">
			<g>
				<defs>
					
						<rect id="SVGID_45_" x="395.718" y="483.774" transform="matrix(-0.6591 0.7521 -0.7521 -0.6591 1027.8815 507.8284)" width="6.237" height="6.238"/>
				</defs>
				<clipPath id="SVGID_46_">
					<use xlink:href="#SVGID_45_"  overflow="visible"/>
				</clipPath>
				<path clip-path="url(#SVGID_46_)" fill="#161ABC" d="M401.789,485.89c-0.555-1.629-2.325-2.503-3.956-1.948
					c-1.63,0.554-2.503,2.325-1.949,3.955c0.555,1.631,2.325,2.503,3.956,1.95C401.47,489.292,402.343,487.52,401.789,485.89"/>
			</g>
		</g>
		<g opacity="0.06" clip-path="url(#SVGID_4_)" enable-background="new    ">
			<g>
				<defs>
					
						<rect id="SVGID_47_" x="417.905" y="250.586" transform="matrix(-0.6591 0.7521 -0.7521 -0.6591 889.3127 104.2678)" width="6.237" height="6.238"/>
				</defs>
				<clipPath id="SVGID_48_">
					<use xlink:href="#SVGID_47_"  overflow="visible"/>
				</clipPath>
				<path clip-path="url(#SVGID_48_)" fill="#161ABC" d="M423.975,252.701c-0.555-1.629-2.325-2.503-3.956-1.948
					c-1.63,0.554-2.503,2.325-1.949,3.955c0.555,1.631,2.325,2.503,3.956,1.949C423.656,256.103,424.529,254.332,423.975,252.701"/>
			</g>
		</g>
	</g>
</g>
</svg>
