<?xml version="1.0" encoding="utf-8"?>
<!-- Generator: Adobe Illustrator 17.0.0, SVG Export Plug-In . SVG Version: 6.00 Build 0)  -->
<!DOCTYPE svg PUBLIC "-//W3C//DTD SVG 1.1//EN" "http://www.w3.org/Graphics/SVG/1.1/DTD/svg11.dtd">
<svg version="1.1" id="Layer_1" xmlns="http://www.w3.org/2000/svg" xmlns:xlink="http://www.w3.org/1999/xlink" x="0px" y="0px"
	 width="98.074px" height="190.209px" viewBox="0 0 98.074 190.209" enable-background="new 0 0 98.074 190.209"
	 xml:space="preserve">
<g>
	<defs>
		<rect id="SVGID_1_" width="98.074" height="190.209"/>
	</defs>
	<clipPath id="SVGID_2_">
		<use xlink:href="#SVGID_1_"  overflow="visible"/>
	</clipPath>
	<path clip-path="url(#SVGID_2_)" fill="#C9C9C9" d="M38.592,167.788c-4.484,5.829-8.521,22.421-6.726,22.421
		c1.794,0,14.349-13.9,13.453-17.937S38.592,167.788,38.592,167.788"/>
	<path clip-path="url(#SVGID_2_)" fill="#151515" d="M35.004,158.37c0,0,5.83,8.52,5.83,9.866c0,1.346-1.46,7.7-6.726,6.277
		c-11.613-3.139-15.359-8.856-15.359-8.856S20.654,156.578,35.004,158.37"/>
	<path clip-path="url(#SVGID_2_)" fill="#C9C9C9" d="M66.215,166.443c4.485,5.829,8.52,22.421,6.726,22.421
		s-14.349-13.9-13.452-17.937C60.386,166.89,66.215,166.443,66.215,166.443"/>
	<path clip-path="url(#SVGID_2_)" fill="#151515" d="M69.802,157.026c0,0-5.829,8.52-5.829,9.866c0,1.346,1.345,7.174,6.726,6.277
		c5.381-0.897,15.358-8.856,15.358-8.856S84.151,155.233,69.802,157.026"/>
	<polygon clip-path="url(#SVGID_2_)" fill="#FDCFC5" points="92.913,15.477 95.024,10.042 91.524,8.282 89.365,13.327 	"/>
	<path clip-path="url(#SVGID_2_)" fill="#FDCFC5" d="M93.041,9.889c2.764,1.095,4.189-1.027,4.761-3.269
		c0.561-2.206,0.119-4.467-0.126-4.526c-0.245-0.059-0.578,1.331-0.578,1.331s-0.158-1.77-0.374-2.77
		c-0.113-0.516-0.995,2-1.163,1.969c-0.168-0.031,0.288-2.525-0.067-2.609c-0.491-0.234-1.426,2.338-1.426,2.338
		s0.101-2.224-0.405-1.913c-0.506,0.311-0.976,4.435-0.976,4.435s-0.244-1.873-0.891-1.337C91.147,4.074,89.79,8.601,93.041,9.889"
		/>
	<polygon clip-path="url(#SVGID_2_)" fill="#FDCFC5" points="12.342,19.82 14.582,14.441 18.325,15.592 16.392,20.728 	"/>
	<path clip-path="url(#SVGID_2_)" fill="#FDCFC5" d="M16.118,15.698c-2.752-1.123-2.313-3.641-1.174-5.654
		c1.121-1.981,3.007-3.307,3.225-3.179s-0.5,1.361-0.5,1.361s1.339-1.169,2.186-1.74c0.439-0.3-0.665,2.13-0.522,2.226
		c0.141,0.096,1.54-2.021,1.853-1.837c0.517,0.172-0.589,2.674-0.589,2.674s1.465-1.674,1.617-1.1
		c0.151,0.574-2.366,3.876-2.366,3.876s1.472-1.184,1.569-0.349C21.513,12.811,19.355,17.02,16.118,15.698"/>
	<path clip-path="url(#SVGID_2_)" fill="#2F2F2F" d="M61.844,107.813c0,0,31.434,51.086,24.214,56.5
		c-16.143,12.107-38.227-32.4-38.227-32.4s-12.219,39.461-27.353,35.425c-7.424-1.98,5.381-49.774,5.381-49.774L61.844,107.813z"/>
	<path clip-path="url(#SVGID_2_)" fill="#161ABC" d="M12.405,18.019l6.278,0.9c0,0-4.057,23.721-2.242,27.353
		c2.337,4.673,41.078,11.137,56.949-7.174c4.473-5.162,16.591-28.7,16.591-28.7l4.933,2.691c0,0-3.812,49.326-26.008,59.414
		c0.113,21.046-3.274,30.339-3.855,38.48c-11.753,12.48-27.481,12.548-40.125,7.559c0,0-1.817-20.1-4.449-35.277
		c-3.731-3.415-14.474-16.241-18.161-22.2C-6.429,46.942,12.405,18.019,12.405,18.019"/>
	<path clip-path="url(#SVGID_2_)" fill="#F7BFB3" d="M46.273,55.398c1.281-1.479-1.48-9.859-1.48-9.859l-7.051,0.393l0.321,6.353
		c0,0-1.081,4.776,2,5.615C43.144,58.739,44.393,57.57,46.273,55.398"/>
	<path clip-path="url(#SVGID_2_)" fill="#FDCFC5" d="M34.082,41.229c0.027,5.943,3.5,8.873,7.59,8.853
		c4.09-0.02,7.235-2.98,7.207-8.924s-3.3-9.856-7.391-9.836C37.398,31.342,34.053,35.285,34.082,41.229"/>
	<path clip-path="url(#SVGID_2_)" fill="#FDCFC5" d="M48.433,38.793c1.114,0,2.019,0.904,2.019,2.018
		c0,1.115-0.905,2.018-2.019,2.018c-1.114,0-2.018-0.903-2.018-2.018C46.415,39.697,47.319,38.793,48.433,38.793"/>
	<path clip-path="url(#SVGID_2_)" fill="#FDCFC5" d="M34.644,38.793c1.114,0,2.019,0.904,2.019,2.018
		c0,1.115-0.905,2.018-2.019,2.018c-1.114,0-2.018-0.903-2.018-2.018C32.626,39.697,33.53,38.793,34.644,38.793"/>
	<path clip-path="url(#SVGID_2_)" fill="#060606" d="M42.415,40.485c-0.022-0.405,0.223-0.749,0.547-0.767
		c0.325-0.018,0.606,0.296,0.629,0.702c0.022,0.405-0.222,0.748-0.547,0.766C42.719,41.204,42.437,40.89,42.415,40.485"/>
	<path clip-path="url(#SVGID_2_)" fill="#060606" d="M38.298,40.432c-0.022-0.405,0.223-0.749,0.548-0.767
		c0.324-0.017,0.606,0.296,0.629,0.702c0.022,0.405-0.223,0.748-0.548,0.766C38.603,41.151,38.32,40.837,38.298,40.432"/>
	<path clip-path="url(#SVGID_2_)" fill="#DE8694" d="M42.784,45.101l-3.415-0.307c0,0,0.314,1.407,1.247,1.712
		C41.548,46.811,42.784,45.101,42.784,45.101"/>
	<path clip-path="url(#SVGID_2_)" fill="#060606" d="M49.4,37.861l-1.345,2.466c0,0-2.063-5.209-2.8-5.717
		c-1.792-1.233-6.2-0.877-7.51-0.224c-2.242,1.121-3.14,5.381-3.14,5.381s-1.345-2.13-0.785-6.278
		c0.181-1.333-2.467-5.493,0.9-7.063c3.367-1.57,4.486,1.682,6.615,1.682c2.128,0,2.69-1.905,4.931,0.112
		c2.241,2.017,5.494,1.794,5.494,3.812S49.4,37.861,49.4,37.861"/>
</g>
</svg>
