<?xml version="1.0" encoding="utf-8"?>
<!-- Generator: Adobe Illustrator 17.0.0, SVG Export Plug-In . SVG Version: 6.00 Build 0)  -->
<!DOCTYPE svg PUBLIC "-//W3C//DTD SVG 1.1//EN" "http://www.w3.org/Graphics/SVG/1.1/DTD/svg11.dtd">
<svg version="1.1" id="Layer_1" xmlns="http://www.w3.org/2000/svg" xmlns:xlink="http://www.w3.org/1999/xlink" x="0px" y="0px"
	 width="83.596px" height="188.178px" viewBox="0 0 83.596 188.178" enable-background="new 0 0 83.596 188.178"
	 xml:space="preserve">
<g>
	<defs>
		<rect id="SVGID_1_" width="83.597" height="188.178"/>
	</defs>
	<clipPath id="SVGID_2_">
		<use xlink:href="#SVGID_1_"  overflow="visible"/>
	</clipPath>
	<path clip-path="url(#SVGID_2_)" fill="#C9C9C9" d="M25.82,124.155l-3.368-3.888c-1.301-1.504-3.574-1.668-5.078-0.367
		c-0.057,0.049-0.113,0.1-0.166,0.153c0,0-16.075,10.258-12.369,12.124c3.706,1.866,17.147-3.119,17.147-3.119L25.82,124.155z"/>
	<path clip-path="url(#SVGID_2_)" fill="#C9C9C9" d="M45.346,165.617l-4.48,2.526c-1.734,0.974-2.349,3.169-1.374,4.903
		c0.038,0.067,0.078,0.133,0.12,0.197c0,0,6.85,17.8,9.417,14.535c2.565-3.265,0.357-17.425,0.357-17.425L45.346,165.617z"/>
	<polygon clip-path="url(#SVGID_2_)" fill="#FDCFC5" points="70.119,10.223 65.46,5.918 62.28,8.757 66.525,12.957 	"/>
	<path clip-path="url(#SVGID_2_)" fill="#FDCFC5" d="M64.51,7.86c2.213-2.361,0.633-4.653-1.409-6.127
		c-2.01-1.45-4.477-1.9-4.635-1.68s1.118,1.117,1.118,1.117s-1.856-0.548-2.955-0.727c-0.567-0.093,1.626,1.805,1.529,1.965
		s-2.442-1.3-2.669-0.975c-0.432,0.4,1.8,2.377,1.8,2.377s-2.212-0.989-2.1-0.353c0.112,0.636,4.1,2.76,4.1,2.76
		s-1.995-0.5-1.71,0.367C57.864,7.451,61.907,10.639,64.51,7.86"/>
	<path clip-path="url(#SVGID_2_)" fill="#2F2F2F" d="M65.385,98.848l-18.75-2.444l-5.5,5.371c0,0-6.3,10.4-3.07,19.528
		c1.71,4.912,3.17,9.907,4.373,14.966l-16.963-12.765l-4.968,6.346c0,0,19.828,24.97,32.289,21.725
		c9.375-2.441,5.668-23.313,5.668-23.313s5.467,15.907,6.538,19.569c-3.091,4.041-20.638,18.438-20.638,18.438l4.63,4.149
		c0,0,31.063-13.739,30.87-22.037C79.327,125.435,65.385,98.848,65.385,98.848"/>
	<path clip-path="url(#SVGID_2_)" fill="#F8153A" d="M60.173,51.003c7.281-3.533,10.67-16.924,10.863-20.017
		c0.488-7.811-5.737-18.063-5.737-18.063l5.187-3.905c0,0,11.534,16.233,13,24.532c1.466,8.299-12.113,41.418-12.817,47.238
		c-1.861,15.376-2.188,26.125-1.709,23.678c-8.125,5.056-20.76,5.8-29.536,0.488c-0.254-5.612-1.451-11.14-3.54-16.355
		c-3.417-8.3-17.7-8.3-24.532-15.623C4.52,65.653,2.076,49.543,2.076,49.543l6.1-1.709c0,0,5.98,15.745,12.328,15.745
		S49.062,56.393,60.173,51.003"/>
	<path clip-path="url(#SVGID_2_)" fill="#F7BFB3" d="M45.193,58.837c-1.822-1.1-4.316-10.45-4.316-10.45l7.435-1.956l5.024,7.735
		c0,0,2.04,3.28-0.869,5.181C49.559,61.248,47.87,60.457,45.193,58.837"/>
	<path clip-path="url(#SVGID_2_)" fill="#FDCFC5" d="M34.582,47.416c1.666,6.253,6.134,8.382,10.433,7.236
		c4.298-1.146,6.799-5.132,5.134-11.384c-1.664-6.252-6.194-9.472-10.492-8.326C35.358,36.088,32.92,41.159,34.582,47.416"/>
	<path clip-path="url(#SVGID_2_)" fill="#060606" d="M34.298,46.853c0,0,2.441-4.15,2.441-6.591c0,0,13.17,10.079,14.4,3.662
		c1.23-6.417-3.174-11.228-7.567-11.961c-4.393-0.733-8.055,0-10.985,5.859C29.657,43.681,34.298,46.853,34.298,46.853"/>
	<path clip-path="url(#SVGID_2_)" fill="#FDCFC5" d="M46.503,41.972c1.213,0,2.197,0.984,2.197,2.197
		c0,1.214-0.984,2.197-2.197,2.197c-1.214,0-2.197-0.983-2.197-2.197C44.306,42.956,45.289,41.972,46.503,41.972"/>
	<path clip-path="url(#SVGID_2_)" fill="#060606" d="M41.318,44.582c0.337-0.108,0.72,0.145,0.854,0.565
		c0.136,0.421-0.028,0.85-0.365,0.958c-0.337,0.109-0.719-0.145-0.854-0.565C40.817,45.119,40.981,44.69,41.318,44.582"/>
	<path clip-path="url(#SVGID_2_)" fill="#060606" d="M36.966,45.661c0.337-0.108,0.72,0.145,0.855,0.565
		c0.135,0.421-0.028,0.85-0.365,0.958c-0.337,0.108-0.719-0.145-0.855-0.565C36.466,46.198,36.629,45.769,36.966,45.661"/>
	<path clip-path="url(#SVGID_2_)" fill="#DE8694" d="M42.615,50.301l-3.683,0.618c0,0,0.719,1.4,1.786,1.46
		C41.784,52.439,42.615,50.301,42.615,50.301"/>
	<path clip-path="url(#SVGID_2_)" fill="#060606" d="M40.4,32.451c0,0-3.174-1.465-2.686-6.346c0.489-4.881,3.663-4.882,3.663-8.3
		s0-5.858,6.59-7.811c0,0-3.905,3.906-0.244,6.835s-2.2,5.614,0,9.276s-1.953,5.371-4.149,5.859
		C42.534,32.227,41.471,32.39,40.4,32.451"/>
	<polygon clip-path="url(#SVGID_2_)" fill="#FDCFC5" points="2.931,49.478 2.077,43.192 6.227,42.216 7.234,48.105 	"/>
	<path clip-path="url(#SVGID_2_)" fill="#FDCFC5" d="M4.212,43.528c-3.2,0.457-4.174-2.151-4.211-4.669
		c-0.036-2.478,1.007-4.76,1.282-4.76s0.274,1.557,0.274,1.557s0.615-1.834,1.1-2.838c0.249-0.517,0.546,2.368,0.732,2.38
		c0.186,0.012,0.336-2.746,0.732-2.746c0.58-0.122,0.915,2.838,0.915,2.838s0.458-2.38,0.915-1.923S5.86,38.31,5.86,38.31
		s0.732-1.922,1.282-1.19C7.692,37.852,7.982,42.99,4.212,43.528"/>
</g>
</svg>
