<?xml version="1.0" encoding="utf-8"?>
<!-- Generator: Adobe Illustrator 17.0.0, SVG Export Plug-In . SVG Version: 6.00 Build 0)  -->
<!DOCTYPE svg PUBLIC "-//W3C//DTD SVG 1.1//EN" "http://www.w3.org/Graphics/SVG/1.1/DTD/svg11.dtd">
<svg version="1.1" id="Layer_1" xmlns="http://www.w3.org/2000/svg" xmlns:xlink="http://www.w3.org/1999/xlink" x="0px" y="0px"
	 width="130.595px" height="187.907px" viewBox="0 0 130.595 187.907" enable-background="new 0 0 130.595 187.907"
	 xml:space="preserve">
<g>
	<defs>
		<rect id="SVGID_1_" width="130.595" height="187.907"/>
	</defs>
	<clipPath id="SVGID_2_">
		<use xlink:href="#SVGID_1_"  overflow="visible"/>
	</clipPath>
	<path clip-path="url(#SVGID_2_)" fill="#C9C9C9" d="M57.779,159.079c-4.269,6.265-19.227,15.55-19.8,13.792
		c-0.575-1.757,9.008-18.528,13.249-18.941C55.468,153.517,57.779,159.079,57.779,159.079"/>
	<path clip-path="url(#SVGID_2_)" fill="#C9C9C9" d="M75.621,167.975c-1.82,7.362-12.608,21.273-13.756,19.828
		c-1.148-1.446,1.989-20.501,5.819-22.37C71.513,163.563,75.621,167.975,75.621,167.975"/>
	<polygon clip-path="url(#SVGID_2_)" fill="#FDCFC5" points="15.871,112.279 10.338,114.618 8.416,111.071 13.549,108.688 	"/>
	<path clip-path="url(#SVGID_2_)" fill="#FDCFC5" d="M10.116,112.583c1.213,2.813-0.93,4.348-3.222,5.005
		c-2.257,0.645-4.6,0.26-4.669,0.009c-0.068-0.25,1.353-0.632,1.353-0.632s-1.828-0.108-2.865-0.303
		c-0.534-0.102,2.029-1.087,1.995-1.265c-0.033-0.178-2.592,0.374-2.691,0.011c-0.255-0.5,2.368-1.541,2.368-1.541
		s-2.286,0.173-1.984-0.361c0.301-0.532,4.536-1.142,4.536-1.142s-1.938-0.192-1.405-0.876
		C4.065,110.804,8.689,109.272,10.116,112.583"/>
	<polygon clip-path="url(#SVGID_2_)" fill="#FDCFC5" points="128.245,15.095 127.141,9.191 123.12,9.549 123.968,15.147 	"/>
	<path clip-path="url(#SVGID_2_)" fill="#FDCFC5" d="M125.321,10.129c3.017-0.543,3.113-3.176,2.398-5.451
		c-0.708-2.238-2.323-3.979-2.572-3.897s0.216,1.477,0.216,1.477s-1.099-1.462-1.832-2.22c-0.378-0.387,0.214,2.294,0.05,2.362
		c-0.163,0.067-1.118-2.374-1.475-2.255c-0.557,0.062,0.022,2.823,0.022,2.823s-1.12-2.003-1.395-1.455
		c-0.275,0.548,1.554,4.419,1.554,4.419s-1.231-1.513-1.507-0.691C120.504,6.063,121.773,10.767,125.321,10.129"/>
	<path clip-path="url(#SVGID_2_)" fill="#151515" d="M96.783,117.878c0,0,29.232,36.066,22.302,49.656
		c-4.168,8.168-45.098,7.722-45.098,7.722l-0.175-8.071l23.263-4.332l-15.232-26.24l2.441-19.203L96.783,117.878z"/>
	<path clip-path="url(#SVGID_2_)" fill="#2F2F2F" d="M74.964,114.88c0,0-13.444,16.859-7.367,26.915
		c6.077,10.056,10.482,27.972,10.482,27.972l-21.46-12.856l-3.443,7.303c0,0,27.104,30.341,41.65,19.728
		c14.143-10.319-5.112-63.734-5.112-63.734L74.964,114.88z"/>
	<path clip-path="url(#SVGID_2_)" fill="#161ABC" d="M67.132,73.123c8.717-5.241,28.863-7.038,35.641-12.692
		c6.777-5.654,12.779-19.581,14.429-27.338c1.65-7.758,4.924-20.745,4.924-20.745l8.468,0.073c0,0-1.747,27.27-4.398,37.348
		c-2.65,10.08-7.713,22.937-13.476,34.473c-4.073,8.157-9.506,43.587-9.506,43.587s-18.759,21.532-36.511,4.996
		c0,0-4.864-24.903-6.74-27.194c-2.981-3.637-4.955,1.074-16.494,3.109c-10.13,1.787-29.871,7.116-29.871,7.116l-2.773-6.967
		c0,0,22.266-11.867,32.468-19.327S58.411,78.365,67.132,73.123"/>
	<path clip-path="url(#SVGID_2_)" fill="#F7BFB3" d="M83.68,70.502c-1.7-1.085-3.847-9.991-3.847-9.991l7.084-1.682l3.963,6.186
		c0,0,2.471,4.402-0.325,6.135C87.76,72.883,86.178,72.097,83.68,70.502"/>
	<path clip-path="url(#SVGID_2_)" fill="#FDCFC5" d="M91.569,52.92c1.713,5.884-0.857,9.798-4.9,10.978
		c-4.044,1.181-8.026-0.82-9.744-6.703c-1.717-5.882,0.372-10.71,4.415-11.891C85.384,44.123,89.851,47.043,91.569,52.92"/>
	<path clip-path="url(#SVGID_2_)" fill="#060606" d="M80.433,50.531c0,0,2.808,1.312,3.11-0.425
		c0.302-1.739,5.225,0.906,6.551-1.554c1.326-2.461,1.222-6.62-0.869-6.919c-2.092-0.298-5.797,3.966-7.582,1.93
		c-1.785-2.036-8.977,1.616-8.898,4.736c0.079,3.119-0.456,9.376,3.412,11.357c3.866,1.98,5.501-1.875,4.747-4.283
		C80.447,53.802,80.287,52.16,80.433,50.531"/>
	<path clip-path="url(#SVGID_2_)" fill="#FDCFC5" d="M79.636,53.691c1.124,0.239,1.841,1.344,1.602,2.468
		c-0.239,1.124-1.344,1.842-2.468,1.602c-1.124-0.238-1.842-1.343-1.602-2.467C77.407,54.17,78.512,53.452,79.636,53.691"/>
	<path clip-path="url(#SVGID_2_)" fill="#FDCFC5" d="M90.787,50.294c1.124,0.239,1.841,1.344,1.602,2.468
		c-0.239,1.124-1.344,1.842-2.468,1.603c-1.124-0.239-1.842-1.344-1.602-2.468C88.558,50.773,89.663,50.055,90.787,50.294"/>
	<path clip-path="url(#SVGID_2_)" fill="#060606" d="M84.728,53.93c0.326-0.078,0.669,0.189,0.766,0.597
		c0.097,0.407-0.089,0.8-0.415,0.878c-0.327,0.077-0.669-0.19-0.766-0.598C84.216,54.4,84.402,54.007,84.728,53.93"/>
	<path clip-path="url(#SVGID_2_)" fill="#060606" d="M88.782,52.669c0.326-0.078,0.669,0.19,0.766,0.597
		c0.096,0.407-0.089,0.8-0.415,0.878c-0.327,0.077-0.669-0.19-0.766-0.597S88.456,52.747,88.782,52.669"/>
	<path clip-path="url(#SVGID_2_)" fill="#DE8694" d="M86.485,59.197l3.284-1.306c0,0,0.103,1.484-0.729,2.059
		C88.208,60.526,86.485,59.197,86.485,59.197"/>
</g>
</svg>
