<?xml version="1.0" encoding="utf-8"?>
<!-- Generator: Adobe Illustrator 17.0.0, SVG Export Plug-In . SVG Version: 6.00 Build 0)  -->
<!DOCTYPE svg PUBLIC "-//W3C//DTD SVG 1.1//EN" "http://www.w3.org/Graphics/SVG/1.1/DTD/svg11.dtd">
<svg version="1.1" id="Layer_1" xmlns="http://www.w3.org/2000/svg" xmlns:xlink="http://www.w3.org/1999/xlink" x="0px" y="0px"
	 width="221.454px" height="51.753px" viewBox="0 0 221.454 51.753" enable-background="new 0 0 221.454 51.753"
	 xml:space="preserve">
<g>
	<defs>
		<path id="SVGID_1_" d="M36.614,44.815c0,3.832,3.107,6.938,6.938,6.938s6.938-3.106,6.938-6.938c0-3.831-3.107-6.938-6.938-6.938
			S36.614,40.984,36.614,44.815"/>
	</defs>
	<clipPath id="SVGID_2_">
		<use xlink:href="#SVGID_1_"  overflow="visible"/>
	</clipPath>
	
		<linearGradient id="SVGID_3_" gradientUnits="userSpaceOnUse" x1="0" y1="51.7534" x2="1" y2="51.7534" gradientTransform="matrix(9.8242 9.8242 -9.8242 9.8242 547.0823 -468.5267)">
		<stop  offset="0" style="stop-color:#160BBC"/>
		<stop  offset="1" style="stop-color:#F8153A"/>
	</linearGradient>
	<polygon clip-path="url(#SVGID_2_)" fill="url(#SVGID_3_)" points="29.676,44.815 43.552,58.691 57.428,44.815 43.552,30.939 	"/>
</g>
<g>
	<defs>
		<path id="SVGID_4_" d="M25.795-0.001C25.715,0,25.634,0.001,25.553,0.004c-3.777,0.134-6.807,3.164-6.941,6.941v0.1
			c0.014,0.736,0.118,5.778-2.744,8.639c-2.8,2.801-7.623,2.717-8.517,2.7H7.2c-3.976,0-7.2,3.223-7.2,7.2s3.224,7.2,7.2,7.2
			s7.2-3.223,7.2-7.2v-0.11c-0.013-0.774-0.218-5.685,2.627-8.528c2.9-2.899,8.1-2.811,8.72-2.8h0.065h0.065
			c0.62-0.012,5.727-0.141,8.629,2.761c2.6,2.6,2.628,6.989,2.618,8.287c-0.007,0.129-0.011,0.259-0.011,0.389s0,0.26,0.011,0.389
			c0.011,1.3,0.018,5.726-2.584,8.329c-2.567,2.566-6.919,2.563-8.28,2.545c-0.148-0.009-0.3-0.015-0.448-0.015
			c-3.976,0-7.2,3.224-7.2,7.2s3.224,7.2,7.2,7.2s7.2-3.224,7.2-7.2v-0.139c-0.013-0.853-0.08-5.582,2.723-8.386
			c2.803-2.804,7.613-2.739,8.451-2.726h0.131c3.973,0.14,7.309-2.967,7.45-6.942c0.141-3.973-2.967-7.308-6.941-7.449
			c-0.17-0.006-0.34-0.006-0.509,0l-0.009-0.005h-0.137c-0.853,0.013-5.674,0.125-8.481-2.681c-2.823-2.823-2.7-7.8-2.687-8.63
			V6.945c-0.137-3.879-3.32-6.933-7.168-6.946H25.795z"/>
	</defs>
	<clipPath id="SVGID_5_">
		<use xlink:href="#SVGID_4_"  overflow="visible"/>
	</clipPath>
	
		<linearGradient id="SVGID_6_" gradientUnits="userSpaceOnUse" x1="0" y1="51.7525" x2="1" y2="51.7525" gradientTransform="matrix(28.8885 28.5871 -28.8885 28.5871 1510.3339 -1464.4025)">
		<stop  offset="0" style="stop-color:#160BBC"/>
		<stop  offset="1" style="stop-color:#F8153A"/>
	</linearGradient>
	<polygon clip-path="url(#SVGID_5_)" fill="url(#SVGID_6_)" points="-25.886,25.615 25.954,76.915 77.794,25.615 25.954,-25.684 	
		"/>
</g>
<g>
	<defs>
		<rect id="SVGID_7_" y="0" width="221.454" height="51.753"/>
	</defs>
	<clipPath id="SVGID_8_">
		<use xlink:href="#SVGID_7_"  overflow="visible"/>
	</clipPath>
	<path clip-path="url(#SVGID_8_)" fill="#1E1E1E" d="M69.178,39.635h-0.057c-0.446,0.714-1.105,1.27-1.885,1.588
		c-0.788,0.322-1.63,0.486-2.481,0.482c-0.629,0.002-1.255-0.089-1.857-0.269c-0.571-0.167-1.105-0.441-1.574-0.808
		c-0.454-0.359-0.822-0.814-1.078-1.333c-0.276-0.574-0.413-1.206-0.4-1.843c-0.022-0.697,0.129-1.389,0.439-2.013
		c0.285-0.54,0.694-1.006,1.191-1.361c0.523-0.37,1.102-0.653,1.715-0.837c0.653-0.201,1.322-0.348,2-0.439
		c0.686-0.094,1.377-0.151,2.07-0.17c0.69-0.019,1.328-0.028,1.914-0.029c0.028-0.694-0.271-1.36-0.808-1.8
		c-0.538-0.444-1.217-0.68-1.914-0.666c-0.664-0.008-1.32,0.142-1.914,0.439c-0.586,0.301-1.111,0.709-1.545,1.205l-2.268-2.325
		c0.8-0.741,1.747-1.306,2.779-1.658c1.057-0.369,2.169-0.556,3.289-0.553c1.045-0.032,2.087,0.126,3.076,0.468
		c0.754,0.277,1.42,0.752,1.928,1.375c0.504,0.654,0.849,1.416,1.007,2.226c0.2,1.003,0.295,2.025,0.283,3.048v7h-3.913
		L69.178,39.635z M68.129,35.325c-0.322,0-0.724,0.014-1.205,0.042c-0.471,0.027-0.937,0.107-1.389,0.241
		c-0.416,0.119-0.802,0.323-1.134,0.6c-0.318,0.277-0.49,0.685-0.468,1.106c-0.022,0.473,0.232,0.915,0.652,1.134
		c0.413,0.24,0.883,0.368,1.361,0.369c0.406,0.001,0.81-0.056,1.2-0.17c0.368-0.104,0.718-0.267,1.035-0.482
		c0.3-0.205,0.547-0.477,0.723-0.794c0.186-0.348,0.279-0.739,0.269-1.134V35.33L68.129,35.325z"/>
	<path clip-path="url(#SVGID_8_)" fill="#1E1E1E" d="M77.57,19.93h4.253v9.13h0.057c0.473-0.646,1.13-1.134,1.886-1.4
		c0.797-0.279,1.636-0.418,2.481-0.411c0.915-0.016,1.821,0.194,2.637,0.609c0.765,0.398,1.436,0.954,1.97,1.63
		c0.549,0.701,0.971,1.492,1.247,2.339c0.295,0.892,0.444,1.825,0.44,2.764c0.011,0.976-0.153,1.946-0.482,2.864
		c-0.302,0.836-0.769,1.603-1.375,2.254c-0.601,0.638-1.331,1.14-2.141,1.474c-0.882,0.359-1.827,0.538-2.779,0.525
		c-0.47,0.002-0.939-0.065-1.389-0.2c-0.419-0.125-0.823-0.296-1.205-0.51c-0.348-0.192-0.671-0.426-0.964-0.695
		c-0.248-0.226-0.472-0.477-0.666-0.751h-0.057v1.815H77.57V19.93z M81.483,34.475c-0.042,0.925,0.279,1.831,0.893,2.524
		c1.426,1.285,3.592,1.285,5.018,0c1.191-1.472,1.191-3.575,0-5.047c-1.426-1.285-3.592-1.285-5.018,0
		C81.762,32.645,81.441,33.55,81.483,34.475"/>
	<rect x="96.509" y="19.93" clip-path="url(#SVGID_8_)" fill="#1E1E1E" width="4.253" height="21.435"/>
	<path clip-path="url(#SVGID_8_)" fill="#1E1E1E" d="M118.283,38.983c-0.683,0.871-1.568,1.563-2.58,2.013
		c-1.013,0.467-2.116,0.709-3.232,0.709c-1.019,0.007-2.032-0.166-2.991-0.511c-0.901-0.32-1.731-0.816-2.438-1.46
		c-0.695-0.64-1.25-1.417-1.63-2.282c-0.794-1.905-0.794-4.049,0-5.954c0.38-0.865,0.935-1.642,1.63-2.282
		c0.708-0.644,1.537-1.14,2.438-1.46c0.959-0.344,1.972-0.517,2.991-0.51c0.919-0.013,1.83,0.161,2.679,0.51
		c0.783,0.326,1.481,0.825,2.042,1.46c0.577,0.668,1.015,1.444,1.29,2.282c0.314,0.961,0.467,1.967,0.454,2.977v1.331h-9.866
		c0.136,0.755,0.527,1.44,1.106,1.942c0.588,0.49,1.335,0.747,2.1,0.723c0.624,0.02,1.24-0.142,1.772-0.468
		c0.491-0.32,0.919-0.729,1.262-1.205L118.283,38.983z M114.683,32.916c0.031-0.686-0.226-1.354-0.709-1.843
		c-0.497-0.512-1.187-0.79-1.9-0.765c-0.427-0.008-0.851,0.069-1.248,0.227c-0.338,0.139-0.65,0.335-0.921,0.581
		c-0.253,0.231-0.457,0.51-0.6,0.822c-0.141,0.308-0.223,0.64-0.241,0.978H114.683z"/>
	<path clip-path="url(#SVGID_8_)" fill="#1E1E1E" d="M146.322,38.737c-0.722,1.027-1.7,1.847-2.837,2.38
		c-1.098,0.486-2.286,0.731-3.486,0.721c-1.222,0.014-2.434-0.21-3.57-0.661c-1.045-0.416-1.991-1.046-2.777-1.851
		c-0.783-0.817-1.395-1.781-1.8-2.837c-0.865-2.314-0.865-4.862,0-7.176c0.407-1.052,1.019-2.012,1.8-2.825
		c0.788-0.806,1.733-1.439,2.777-1.863c1.134-0.459,2.347-0.687,3.57-0.673c1.108-0.009,2.206,0.199,3.234,0.613
		c1.044,0.441,1.952,1.151,2.633,2.056l-1.3,1.082c-0.493-0.77-1.199-1.38-2.032-1.755c-0.796-0.362-1.661-0.551-2.536-0.553
		c-1.027-0.015-2.046,0.181-2.993,0.577c-0.86,0.364-1.634,0.905-2.272,1.587c-0.635,0.689-1.125,1.498-1.442,2.38
		c-0.674,1.914-0.674,4,0,5.914c0.317,0.882,0.807,1.691,1.442,2.38c0.638,0.682,1.412,1.222,2.272,1.586
		c0.947,0.396,1.966,0.592,2.993,0.577c0.936-0.007,1.859-0.225,2.7-0.637c0.451-0.223,0.874-0.497,1.262-0.817
		c0.411-0.341,0.768-0.742,1.058-1.19L146.322,38.737z"/>
	<path clip-path="url(#SVGID_8_)" fill="#1E1E1E" d="M149.4,35.848c-0.009-0.802,0.138-1.598,0.433-2.344
		c0.273-0.691,0.681-1.32,1.2-1.851c0.526-0.529,1.156-0.943,1.851-1.214c0.751-0.294,1.55-0.441,2.356-0.433
		c0.802-0.009,1.598,0.138,2.344,0.433c1.402,0.553,2.512,1.663,3.065,3.065c0.577,1.51,0.577,3.178,0,4.688
		c-0.553,1.403-1.662,2.512-3.065,3.065c-0.746,0.295-1.542,0.442-2.344,0.433c-0.806,0.008-1.606-0.139-2.356-0.433
		c-0.695-0.271-1.326-0.684-1.851-1.214c-0.519-0.531-0.927-1.16-1.2-1.851C149.538,37.446,149.391,36.65,149.4,35.848
		 M150.843,35.848c-0.004,0.602,0.097,1.2,0.3,1.767c0.19,0.536,0.489,1.027,0.878,1.443c0.394,0.415,0.868,0.747,1.394,0.974
		c1.171,0.481,2.483,0.481,3.654,0c0.525-0.227,1-0.559,1.394-0.974c0.389-0.416,0.688-0.907,0.878-1.443
		c0.4-1.144,0.4-2.39,0-3.534c-0.19-0.536-0.489-1.027-0.878-1.443c-0.394-0.415-0.869-0.746-1.394-0.973
		c-1.171-0.481-2.483-0.481-3.654,0c-0.526,0.227-1,0.558-1.394,0.973c-0.389,0.416-0.688,0.907-0.878,1.443
		C150.94,34.648,150.839,35.246,150.843,35.848"/>
	<path clip-path="url(#SVGID_8_)" fill="#1E1E1E" d="M165.556,40.392c0.002-0.635,0.52-1.148,1.155-1.145
		c0.635,0.002,1.148,0.52,1.145,1.154c-0.003,0.636-0.519,1.148-1.154,1.146c-0.304-0.002-0.594-0.122-0.809-0.337
		C165.672,40.996,165.55,40.7,165.556,40.392"/>
	<polygon clip-path="url(#SVGID_8_)" fill="#1E1E1E" points="173.826,39.239 175.509,39.239 173.658,44.72 172.239,44.72 	"/>
	<polygon clip-path="url(#SVGID_8_)" fill="#1E1E1E" points="188.275,24.381 189.862,24.381 189.862,39.96 197.796,39.96 
		197.796,41.402 188.275,41.402 	"/>
	<path clip-path="url(#SVGID_8_)" fill="#1E1E1E" d="M206.523,31.594h-3.174v7.237c-0.027,0.424,0.121,0.841,0.409,1.154
		c0.305,0.285,0.713,0.432,1.13,0.408c0.28-0.001,0.558-0.037,0.829-0.108c0.276-0.07,0.545-0.163,0.806-0.276l0.12,1.3
		c-0.307,0.106-0.62,0.194-0.938,0.264c-0.307,0.074-0.621,0.115-0.937,0.12c-0.452,0.011-0.9-0.067-1.322-0.228
		c-0.34-0.132-0.645-0.342-0.89-0.613c-0.227-0.261-0.396-0.568-0.493-0.9c-0.107-0.363-0.16-0.74-0.156-1.118v-7.237h-2.4v-1.3h2.4
		v-3.2h1.442v3.2h3.174V31.594z"/>
	<path clip-path="url(#SVGID_8_)" fill="#1E1E1E" d="M220.011,39.454h-0.048c-0.22,0.38-0.505,0.719-0.842,1
		c-0.333,0.279-0.701,0.515-1.094,0.7c-0.395,0.185-0.81,0.322-1.238,0.408c-0.419,0.087-0.846,0.131-1.274,0.132
		c-0.806,0.008-1.606-0.139-2.356-0.433c-0.695-0.271-1.325-0.684-1.851-1.214c-0.519-0.531-0.927-1.16-1.2-1.851
		c-0.577-1.509-0.577-3.179,0-4.688c0.273-0.691,0.681-1.32,1.2-1.851c0.526-0.529,1.156-0.943,1.851-1.214
		c0.75-0.294,1.55-0.441,2.356-0.433c0.428,0.001,0.855,0.046,1.274,0.132c0.428,0.087,0.843,0.224,1.238,0.409
		c0.393,0.186,0.761,0.421,1.094,0.7c0.337,0.282,0.622,0.62,0.842,1h0.048v-9.025h1.443v18.176h-1.443V39.454z M220.155,35.848
		c0.004-0.607-0.119-1.209-0.36-1.767c-0.232-0.541-0.567-1.03-0.986-1.443c-0.424-0.413-0.922-0.743-1.467-0.973
		c-0.578-0.244-1.2-0.367-1.827-0.361c-0.628-0.009-1.25,0.114-1.827,0.361c-0.526,0.227-1,0.558-1.395,0.973
		c-0.388,0.416-0.687,0.907-0.877,1.443c-0.401,1.144-0.401,2.39,0,3.534c0.19,0.536,0.489,1.027,0.877,1.443
		c0.394,0.415,0.869,0.747,1.395,0.974c0.577,0.247,1.199,0.37,1.827,0.36c0.627,0.006,1.249-0.116,1.827-0.36
		c0.545-0.23,1.043-0.56,1.467-0.974c0.419-0.412,0.754-0.902,0.986-1.443C220.036,37.057,220.159,36.455,220.155,35.848"/>
</g>
</svg>
