<?xml version="1.0" encoding="utf-8"?>
<!-- Generator: Adobe Illustrator 17.0.0, SVG Export Plug-In . SVG Version: 6.00 Build 0)  -->
<!DOCTYPE svg PUBLIC "-//W3C//DTD SVG 1.1//EN" "http://www.w3.org/Graphics/SVG/1.1/DTD/svg11.dtd">
<svg version="1.1" id="Layer_1" xmlns="http://www.w3.org/2000/svg" xmlns:xlink="http://www.w3.org/1999/xlink" x="0px" y="0px"
	 width="608.163px" height="547.296px" viewBox="0 0 608.163 547.296" enable-background="new 0 0 608.163 547.296"
	 xml:space="preserve">
<g>
	<defs>
		<rect id="SVGID_1_" transform="matrix(-0.7347 -0.6784 0.6784 -0.7347 341.8371 680.9849)" width="608.163" height="547.296"/>
	</defs>
	<clipPath id="SVGID_2_">
		<use xlink:href="#SVGID_1_"  overflow="visible"/>
	</clipPath>
	<g clip-path="url(#SVGID_2_)">
		<defs>
			<rect id="SVGID_3_" transform="matrix(-0.7347 -0.6784 0.6784 -0.7347 341.8371 680.9849)" width="608.163" height="547.296"/>
		</defs>
		<clipPath id="SVGID_4_">
			<use xlink:href="#SVGID_3_"  overflow="visible"/>
		</clipPath>
		<g opacity="0.042" clip-path="url(#SVGID_4_)" enable-background="new    ">
			<g>
				<defs>
					
						<rect id="SVGID_5_" x="205.45" y="111.281" transform="matrix(-0.7347 -0.6784 0.6784 -0.7347 502.4951 809.8413)" width="408.315" height="390.758"/>
				</defs>
				<clipPath id="SVGID_6_">
					<use xlink:href="#SVGID_5_"  overflow="visible"/>
				</clipPath>
				<path clip-path="url(#SVGID_6_)" fill="#161ABC" d="M270.915,418.992c-18.113-6.587-36.544-13.343-52.081-24.025
					c-29.028-19.948-44.321-51.876-44.966-81.762c-0.645-29.886,11.882-57.851,29.515-82.106
					c15.78-21.7,36.193-41.289,62.795-53.449c26.602-12.159,59.941-16.271,90.932-7.314c21.031,6.079,40.215,17.787,61.617,22.201
					c34.55,7.122,67.793-5.906,102.549-4.834c36.191,1.119,73.254,18.752,94.967,45.175c23.67,28.816,28.246,65.304,19.988,96.999
					c-8.26,31.693-28.041,59.391-49.563,85.235c-25.647,30.791-58.28,61.679-104.427,65.479c-33.399,2.76-67.71-9.331-100.196-21.15
					C345.004,445.956,307.961,432.473,270.915,418.992"/>
			</g>
		</g>
		<g opacity="0.042" clip-path="url(#SVGID_4_)" enable-background="new    ">
			<g>
				<defs>
					
						<rect id="SVGID_7_" x="-51.641" y="132.045" transform="matrix(-0.7347 -0.6784 0.6784 -0.7347 108.7821 645.5098)" width="464.517" height="338.876"/>
				</defs>
				<clipPath id="SVGID_8_">
					<use xlink:href="#SVGID_7_"  overflow="visible"/>
				</clipPath>
				<path clip-path="url(#SVGID_8_)" fill="#F8153A" d="M18.152,252.464c-5.961-18.329-11.985-37.013-13.132-55.831
					c-2.152-35.155,13.592-66.864,36.745-85.773c23.154-18.907,52.902-26.251,82.872-27.29c26.815-0.925,54.818,3.1,80.779,16.576
					c25.96,13.476,49.726,37.216,61.746,67.153c8.159,20.314,10.743,42.639,20.442,62.222
					c15.658,31.611,46.391,49.785,66.944,77.834c21.399,29.208,30.322,69.271,22.869,102.648
					c-8.135,36.393-34.071,62.462-64.13,75.467c-30.059,13.006-64.065,14.469-97.681,13.421
					c-40.054-1.253-84.484-7.951-115.889-41.975c-22.738-24.62-34.333-59.101-45.02-91.978
					C42.517,327.447,30.337,289.955,18.152,252.464"/>
			</g>
		</g>
		<g opacity="0.06" clip-path="url(#SVGID_4_)" enable-background="new    ">
			<g>
				<defs>
					
						<rect id="SVGID_9_" x="179.006" y="23.614" transform="matrix(-0.7347 -0.6784 0.6784 -0.7347 313.9744 206.8951)" width="36.876" height="36.876"/>
				</defs>
				<clipPath id="SVGID_10_">
					<use xlink:href="#SVGID_9_"  overflow="visible"/>
				</clipPath>
				<path clip-path="url(#SVGID_10_)" fill="#161ABC" d="M209.953,28.506c7.481,6.908,7.945,18.573,1.037,26.054
					c-6.908,7.481-18.573,7.946-26.054,1.038c-7.482-6.909-7.946-18.573-1.037-26.055C190.807,22.062,202.471,21.597,209.953,28.506
					"/>
			</g>
		</g>
		<g opacity="0.06" clip-path="url(#SVGID_4_)" enable-background="new    ">
			<g>
				<defs>
					
						<rect id="SVGID_11_" x="454.495" y="220.453" transform="matrix(-0.7347 -0.6784 0.6784 -0.7347 663.6008 747.3096)" width="46.876" height="46.876"/>
				</defs>
				<clipPath id="SVGID_12_">
					<use xlink:href="#SVGID_11_"  overflow="visible"/>
				</clipPath>
				<path clip-path="url(#SVGID_12_)" fill="#161ABC" d="M493.834,226.672c9.51,8.781,10.1,23.609,1.318,33.119
					c-8.781,9.51-23.61,10.101-33.119,1.319c-9.51-8.782-10.1-23.61-1.319-33.12C469.496,218.48,484.323,217.89,493.834,226.672"/>
			</g>
		</g>
		<g opacity="0.06" clip-path="url(#SVGID_4_)" enable-background="new    ">
			<g>
				<defs>
					
						<rect id="SVGID_13_" x="284.034" y="131.419" transform="matrix(-0.7347 -0.6784 0.6784 -0.7347 414.7675 446.2896)" width="21.239" height="21.24"/>
				</defs>
				<clipPath id="SVGID_14_">
					<use xlink:href="#SVGID_13_"  overflow="visible"/>
				</clipPath>
				<path clip-path="url(#SVGID_14_)" fill="#161ABC" d="M305.01,144.377c-1.291,5.721-6.975,9.31-12.695,8.02
					c-5.721-1.291-9.312-6.975-8.02-12.695c1.292-5.719,6.975-9.31,12.695-8.019C302.711,132.973,306.302,138.657,305.01,144.377"/>
			</g>
		</g>
		<g opacity="0.06" clip-path="url(#SVGID_4_)" enable-background="new    ">
			<g>
				<defs>
					
						<rect id="SVGID_15_" x="510.007" y="131.297" transform="matrix(-0.7347 -0.6784 0.6784 -0.7347 811.4082 609.8101)" width="29.884" height="29.884"/>
				</defs>
				<clipPath id="SVGID_16_">
					<use xlink:href="#SVGID_15_"  overflow="visible"/>
				</clipPath>
				<path clip-path="url(#SVGID_16_)" fill="#F8153A" d="M538.921,151.523c-2.918,7.717-11.54,11.605-19.257,8.686
					c-7.717-2.918-11.605-11.54-8.686-19.257c2.918-7.717,11.539-11.606,19.256-8.686
					C537.95,135.185,541.839,143.807,538.921,151.523"/>
			</g>
		</g>
		<g opacity="0.06" clip-path="url(#SVGID_4_)" enable-background="new    ">
			<g>
				<defs>
					
						<rect id="SVGID_17_" x="121.451" y="32.879" transform="matrix(-0.7347 -0.6784 0.6784 -0.7347 205.2114 177.8986)" width="31.885" height="31.885"/>
				</defs>
				<clipPath id="SVGID_18_">
					<use xlink:href="#SVGID_17_"  overflow="visible"/>
				</clipPath>
				<path clip-path="url(#SVGID_18_)" fill="#F8153A" d="M152.3,54.46c-3.114,8.234-12.314,12.383-20.546,9.268
					c-8.232-3.114-12.383-12.313-9.268-20.546c3.114-8.233,12.313-12.382,20.546-9.268C151.264,37.028,155.414,46.228,152.3,54.46"
					/>
			</g>
		</g>
		<g opacity="0.06" clip-path="url(#SVGID_4_)" enable-background="new    ">
			<g>
				<defs>
					
						<rect id="SVGID_19_" x="91.361" y="126.084" transform="matrix(-0.7347 -0.6784 0.6784 -0.7347 94.5391 330.0284)" width="40.887" height="40.887"/>
				</defs>
				<clipPath id="SVGID_20_">
					<use xlink:href="#SVGID_19_"  overflow="visible"/>
				</clipPath>
				<path clip-path="url(#SVGID_20_)" fill="#F8153A" d="M130.921,153.759c-3.993,10.557-15.789,15.878-26.347,11.885
					c-10.557-3.994-15.879-15.79-11.886-26.347c3.994-10.557,15.79-15.879,26.348-11.886
					C129.593,131.405,134.914,143.201,130.921,153.759"/>
			</g>
		</g>
		<g opacity="0.06" clip-path="url(#SVGID_4_)" enable-background="new    ">
			<g>
				<defs>
					
						<rect id="SVGID_21_" x="413.601" y="216.232" transform="matrix(-0.7347 -0.6784 0.6784 -0.7347 580.2128 677.2606)" width="17.88" height="17.881"/>
				</defs>
				<clipPath id="SVGID_22_">
					<use xlink:href="#SVGID_21_"  overflow="visible"/>
				</clipPath>
				<path clip-path="url(#SVGID_22_)" fill="#F8153A" d="M430.901,228.335c-1.746,4.618-6.904,6.945-11.521,5.198
					c-4.618-1.747-6.945-6.906-5.198-11.523c1.746-4.616,6.905-6.944,11.522-5.197C430.32,218.559,432.648,223.718,430.901,228.335"
					/>
			</g>
		</g>
		<g opacity="0.06" clip-path="url(#SVGID_4_)" enable-background="new    ">
			<g>
				<defs>
					
						<rect id="SVGID_23_" x="307.403" y="69.153" transform="matrix(-0.7347 -0.6784 0.6784 -0.7347 496.9745 352.8208)" width="20.153" height="20.153"/>
				</defs>
				<clipPath id="SVGID_24_">
					<use xlink:href="#SVGID_23_"  overflow="visible"/>
				</clipPath>
				<path clip-path="url(#SVGID_24_)" fill="#F8153A" d="M322.925,70.753c4.681,3.008,6.038,9.24,3.031,13.922
					c-3.008,4.681-9.241,6.038-13.923,3.03c-4.681-3.007-6.038-9.241-3.03-13.922C312.011,69.101,318.244,67.746,322.925,70.753"/>
			</g>
		</g>
		<g opacity="0.06" clip-path="url(#SVGID_4_)" enable-background="new    ">
			<g>
				<defs>
					
						<rect id="SVGID_25_" x="243.027" y="61.744" transform="matrix(-0.7347 -0.6784 0.6784 -0.7347 385.6205 285.5376)" width="11.238" height="11.238"/>
				</defs>
				<clipPath id="SVGID_26_">
					<use xlink:href="#SVGID_25_"  overflow="visible"/>
				</clipPath>
				<path clip-path="url(#SVGID_26_)" fill="#161ABC" d="M254.125,68.6c-0.683,3.027-3.69,4.927-6.717,4.243
					c-3.027-0.683-4.927-3.69-4.243-6.717c0.683-3.027,3.69-4.927,6.717-4.244C252.909,62.566,254.809,65.573,254.125,68.6"/>
			</g>
		</g>
		<g opacity="0.06" clip-path="url(#SVGID_4_)" enable-background="new    ">
			<g>
				<defs>
					
						<rect id="SVGID_27_" x="431.178" y="253.938" transform="matrix(-0.7347 -0.6784 0.6784 -0.7347 578.9745 740.5428)" width="6.237" height="6.237"/>
				</defs>
				<clipPath id="SVGID_28_">
					<use xlink:href="#SVGID_27_"  overflow="visible"/>
				</clipPath>
				<path clip-path="url(#SVGID_28_)" fill="#161ABC" d="M437.338,257.742c-0.38,1.68-2.047,2.735-3.728,2.355
					c-1.68-0.378-2.734-2.048-2.355-3.728c0.379-1.68,2.048-2.734,3.728-2.355C436.663,254.393,437.718,256.063,437.338,257.742"/>
			</g>
		</g>
		<g opacity="0.06" clip-path="url(#SVGID_4_)" enable-background="new    ">
			<g>
				<defs>
					
						<rect id="SVGID_29_" x="350.326" y="71.748" transform="matrix(-0.7347 -0.6784 0.6784 -0.7347 562.323 369.6516)" width="6.237" height="6.237"/>
				</defs>
				<clipPath id="SVGID_30_">
					<use xlink:href="#SVGID_29_"  overflow="visible"/>
				</clipPath>
				<path clip-path="url(#SVGID_30_)" fill="#F8153A" d="M356.487,75.552c-0.38,1.68-2.047,2.735-3.728,2.355
					c-1.68-0.378-2.734-2.048-2.355-3.728c0.379-1.68,2.048-2.734,3.728-2.355C355.811,72.204,356.866,73.874,356.487,75.552"/>
			</g>
		</g>
		<path clip-path="url(#SVGID_4_)" fill="#FFF1F3" d="M232.598,21.041c-0.38,1.68-2.047,2.735-3.728,2.355
			c-1.68-0.378-2.734-2.048-2.355-3.728s2.048-2.734,3.728-2.355C231.922,17.693,232.977,19.362,232.598,21.041"/>
		<g opacity="0.06" clip-path="url(#SVGID_4_)" enable-background="new    ">
			<g>
				<defs>
					
						<rect id="SVGID_31_" x="317.381" y="104.865" transform="matrix(-0.7347 -0.6784 0.6784 -0.7347 499.4211 442.9348)" width="37.886" height="37.886"/>
				</defs>
				<clipPath id="SVGID_32_">
					<use xlink:href="#SVGID_31_"  overflow="visible"/>
				</clipPath>
				<path clip-path="url(#SVGID_32_)" fill="#F8153A" d="M354.037,130.509c-3.7,9.782-14.63,14.713-24.413,11.012
					c-9.782-3.7-14.713-14.63-11.012-24.413c3.7-9.782,14.63-14.713,24.413-11.012C352.808,109.796,357.738,120.726,354.037,130.509
					"/>
			</g>
		</g>
		<g opacity="0.06" clip-path="url(#SVGID_4_)" enable-background="new    ">
			<g>
				<defs>
					
						<rect id="SVGID_33_" x="495.561" y="100.453" transform="matrix(-0.7347 -0.6784 0.6784 -0.7347 797.3812 523.9047)" width="11.152" height="11.152"/>
				</defs>
				<clipPath id="SVGID_34_">
					<use xlink:href="#SVGID_33_"  overflow="visible"/>
				</clipPath>
				<path clip-path="url(#SVGID_34_)" fill="#F8153A" d="M504.151,101.339c2.59,1.664,3.341,5.114,1.677,7.704
					c-1.665,2.59-5.114,3.341-7.703,1.677c-2.591-1.665-3.341-5.114-1.677-7.704C498.111,100.425,501.56,99.675,504.151,101.339"/>
			</g>
		</g>
		<g opacity="0.06" clip-path="url(#SVGID_4_)" enable-background="new    ">
			<g>
				<defs>
					
						<rect id="SVGID_35_" x="527.407" y="111.403" transform="matrix(-0.7347 -0.6784 0.6784 -0.7347 842.598 558.5746)" width="6.237" height="6.237"/>
				</defs>
				<clipPath id="SVGID_36_">
					<use xlink:href="#SVGID_35_"  overflow="visible"/>
				</clipPath>
				<path clip-path="url(#SVGID_36_)" fill="#161ABC" d="M533.567,115.208c-0.38,1.68-2.047,2.735-3.728,2.355
					c-1.68-0.378-2.734-2.048-2.355-3.728c0.379-1.68,2.048-2.734,3.728-2.355C532.892,111.859,533.947,113.529,533.567,115.208"/>
			</g>
		</g>
		<g opacity="0.06" clip-path="url(#SVGID_4_)" enable-background="new    ">
			<g>
				<defs>
					
						<rect id="SVGID_37_" x="474.626" y="154.968" transform="matrix(-0.7347 -0.6784 0.6784 -0.7347 729.4084 616.4396)" width="21.239" height="21.24"/>
				</defs>
				<clipPath id="SVGID_38_">
					<use xlink:href="#SVGID_37_"  overflow="visible"/>
				</clipPath>
				<path clip-path="url(#SVGID_38_)" fill="#161ABC" d="M495.603,167.926c-1.291,5.721-6.975,9.31-12.695,8.019
					c-5.721-1.291-9.312-6.975-8.02-12.695c1.292-5.719,6.975-9.31,12.695-8.019C493.303,156.522,496.894,162.205,495.603,167.926"
					/>
			</g>
		</g>
		<g opacity="0.06" clip-path="url(#SVGID_4_)" enable-background="new    ">
			<g>
				<defs>
					
						<rect id="SVGID_39_" x="168.144" y="63.823" transform="matrix(-0.7347 -0.6784 0.6784 -0.7347 253.2098 235.8266)" width="9.152" height="9.152"/>
				</defs>
				<clipPath id="SVGID_40_">
					<use xlink:href="#SVGID_39_"  overflow="visible"/>
				</clipPath>
				<path clip-path="url(#SVGID_40_)" fill="#F8153A" d="M175.192,64.55c2.126,1.365,2.742,4.196,1.376,6.322
					c-1.366,2.125-4.196,2.742-6.322,1.376s-2.742-4.196-1.376-6.322C170.237,63.802,173.067,63.184,175.192,64.55"/>
			</g>
		</g>
	</g>
</g>
</svg>
