<?xml version="1.0" encoding="utf-8"?>
<!-- Generator: Adobe Illustrator 17.0.0, SVG Export Plug-In . SVG Version: 6.00 Build 0)  -->
<!DOCTYPE svg PUBLIC "-//W3C//DTD SVG 1.1//EN" "http://www.w3.org/Graphics/SVG/1.1/DTD/svg11.dtd">
<svg version="1.1" id="Layer_1" xmlns="http://www.w3.org/2000/svg" xmlns:xlink="http://www.w3.org/1999/xlink" x="0px" y="0px"
	 width="608.163px" height="547.296px" viewBox="0 0 608.163 547.296" enable-background="new 0 0 608.163 547.296"
	 xml:space="preserve">
<g>
	<defs>
		<rect id="SVGID_1_" width="608.163" height="547.296"/>
	</defs>
	<clipPath id="SVGID_2_">
		<use xlink:href="#SVGID_1_"  overflow="visible"/>
	</clipPath>
	<g clip-path="url(#SVGID_2_)">
		<defs>
			<rect id="SVGID_3_" width="608.163" height="547.296"/>
		</defs>
		<clipPath id="SVGID_4_">
			<use xlink:href="#SVGID_3_"  overflow="visible"/>
		</clipPath>
		<g opacity="0.042" clip-path="url(#SVGID_4_)" enable-background="new    ">
			<g>
				<defs>
					<rect id="SVGID_5_" x="199.848" y="30.932" width="408.315" height="390.758"/>
				</defs>
				<clipPath id="SVGID_6_">
					<use xlink:href="#SVGID_5_"  overflow="visible"/>
				</clipPath>
				<path clip-path="url(#SVGID_6_)" fill="#161ABC" d="M378.319,402.93c-17.776,7.449-35.9,14.989-54.562,17.682
					c-34.859,5.038-67.755-8.044-88.504-29.563c-20.749-21.519-30.517-50.563-34.018-80.345
					c-3.128-26.648-1.421-54.888,9.873-81.869c11.295-26.98,32.999-52.619,61.844-67.063c19.575-9.802,41.612-14.215,60.33-25.491
					c30.215-18.207,45.799-50.331,72.061-73.122c27.348-23.73,66.54-35.92,100.418-31.238c36.939,5.113,65.055,28.815,80.49,57.703
					c15.433,28.888,19.691,62.657,21.412,96.245c2.047,40.021-0.973,84.852-32.298,118.951
					c-22.665,24.686-56.075,39.08-87.961,52.436C451.043,372.477,414.681,387.702,378.319,402.93"/>
			</g>
		</g>
		<g opacity="0.042" clip-path="url(#SVGID_4_)" enable-background="new    ">
			<g>
				<defs>
					<rect id="SVGID_7_" y="208.42" width="464.517" height="338.876"/>
				</defs>
				<clipPath id="SVGID_8_">
					<use xlink:href="#SVGID_7_"  overflow="visible"/>
				</clipPath>
				<path clip-path="url(#SVGID_8_)" fill="#F8153A" d="M79.643,452.063c-16.814-9.422-33.915-19.062-47.525-32.109
					C6.687,395.586-3.258,361.609,0.924,332.01c4.184-29.599,21.057-55.176,42.37-76.271c19.073-18.871,42.377-34.912,70.592-42.623
					c28.214-7.711,61.78-6.393,90.921,7.446c19.776,9.389,36.82,24.038,57.231,31.845c32.949,12.601,67.857,5.104,101.986,11.767
					c35.536,6.941,69.271,30.321,86.439,59.899c18.713,32.256,17.344,69.004,4.083,98.951
					c-13.26,29.948-37.251,54.093-62.659,76.128c-30.277,26.253-67.463,51.474-113.618,47.783
					c-33.408-2.662-65.319-20.128-95.475-37.032C148.414,490.622,114.03,471.341,79.643,452.063"/>
			</g>
		</g>
		<g opacity="0.06" clip-path="url(#SVGID_4_)" enable-background="new    ">
			<g>
				<defs>
					<rect id="SVGID_9_" x="50.181" y="157.405" width="36.876" height="36.876"/>
				</defs>
				<clipPath id="SVGID_10_">
					<use xlink:href="#SVGID_9_"  overflow="visible"/>
				</clipPath>
				<path clip-path="url(#SVGID_10_)" fill="#161ABC" d="M68.619,157.405c10.183,0,18.437,8.255,18.437,18.438
					c0,10.183-8.254,18.438-18.437,18.438c-10.184,0-18.438-8.255-18.438-18.438C50.181,165.66,58.435,157.405,68.619,157.405"/>
			</g>
		</g>
		<g opacity="0.06" clip-path="url(#SVGID_4_)" enable-background="new    ">
			<g>
				<defs>
					<rect id="SVGID_11_" x="388.181" y="110.405" width="46.876" height="46.876"/>
				</defs>
				<clipPath id="SVGID_12_">
					<use xlink:href="#SVGID_11_"  overflow="visible"/>
				</clipPath>
				<path clip-path="url(#SVGID_12_)" fill="#161ABC" d="M411.619,110.405c12.944,0,23.437,10.493,23.437,23.438
					c0,12.944-10.493,23.438-23.437,23.438c-12.945,0-23.438-10.494-23.438-23.438C388.181,120.898,398.674,110.405,411.619,110.405
					"/>
			</g>
		</g>
		<g opacity="0.06" clip-path="url(#SVGID_4_)" enable-background="new    ">
			<g>
				<defs>
					<rect id="SVGID_13_" x="197.25" y="172.734" width="21.239" height="21.24"/>
				</defs>
				<clipPath id="SVGID_14_">
					<use xlink:href="#SVGID_13_"  overflow="visible"/>
				</clipPath>
				<path clip-path="url(#SVGID_14_)" fill="#161ABC" d="M217.065,178.045c2.933,5.079,1.192,11.572-3.886,14.504
					c-5.079,2.933-11.573,1.193-14.505-3.886c-2.931-5.078-1.192-11.572,3.887-14.504
					C207.639,171.227,214.133,172.966,217.065,178.045"/>
			</g>
		</g>
		<g opacity="0.06" clip-path="url(#SVGID_4_)" enable-background="new    ">
			<g>
				<defs>
					<rect id="SVGID_15_" x="364.97" y="15.261" width="29.884" height="29.884"/>
				</defs>
				<clipPath id="SVGID_16_">
					<use xlink:href="#SVGID_15_"  overflow="visible"/>
				</clipPath>
				<path clip-path="url(#SVGID_16_)" fill="#F8153A" d="M393.762,24.607c3.091,7.649-0.605,16.355-8.255,19.446
					c-7.649,3.091-16.355-0.605-19.445-8.255c-3.091-7.649,0.604-16.355,8.254-19.445C381.965,13.262,390.671,16.958,393.762,24.607
					"/>
			</g>
		</g>
		<g opacity="0.06" clip-path="url(#SVGID_4_)" enable-background="new    ">
			<g>
				<defs>
					<rect id="SVGID_17_" x="13.151" y="205.614" width="31.885" height="31.885"/>
				</defs>
				<clipPath id="SVGID_18_">
					<use xlink:href="#SVGID_17_"  overflow="visible"/>
				</clipPath>
				<path clip-path="url(#SVGID_18_)" fill="#F8153A" d="M43.87,215.586c3.298,8.162-0.646,17.451-8.807,20.748
					s-17.451-0.645-20.748-8.807c-3.298-8.161,0.646-17.45,8.807-20.748C31.283,203.482,40.573,207.425,43.87,215.586"/>
			</g>
		</g>
		<g opacity="0.06" clip-path="url(#SVGID_4_)" enable-background="new    ">
			<g>
				<defs>
					<rect id="SVGID_19_" x="56.136" y="290.255" width="40.887" height="40.887"/>
				</defs>
				<clipPath id="SVGID_20_">
					<use xlink:href="#SVGID_19_"  overflow="visible"/>
				</clipPath>
				<path clip-path="url(#SVGID_20_)" fill="#F8153A" d="M95.53,303.043c4.229,10.465-0.828,22.377-11.294,26.606
					c-10.466,4.228-22.378-0.828-26.606-11.293c-4.228-10.466,0.828-22.378,11.294-26.607
					C79.389,287.521,91.301,292.577,95.53,303.043"/>
			</g>
		</g>
		<g opacity="0.06" clip-path="url(#SVGID_4_)" enable-background="new    ">
			<g>
				<defs>
					<rect id="SVGID_21_" x="349.285" y="148.729" width="17.88" height="17.881"/>
				</defs>
				<clipPath id="SVGID_22_">
					<use xlink:href="#SVGID_21_"  overflow="visible"/>
				</clipPath>
				<path clip-path="url(#SVGID_22_)" fill="#F8153A" d="M366.512,154.321c1.85,4.577-0.361,9.786-4.938,11.635
					c-4.578,1.849-9.787-0.362-11.636-4.939c-1.849-4.576,0.362-9.786,4.939-11.635
					C359.453,147.533,364.663,149.744,366.512,154.321"/>
			</g>
		</g>
		<g opacity="0.06" clip-path="url(#SVGID_4_)" enable-background="new    ">
			<g>
				<defs>
					<rect id="SVGID_23_" x="171.952" y="111.647" width="20.153" height="20.153"/>
				</defs>
				<clipPath id="SVGID_24_">
					<use xlink:href="#SVGID_23_"  overflow="visible"/>
				</clipPath>
				<path clip-path="url(#SVGID_24_)" fill="#F8153A" d="M180.279,111.802c5.48-0.966,10.705,2.692,11.672,8.172
					c0.966,5.48-2.693,10.705-8.173,11.672c-5.479,0.966-10.705-2.693-11.671-8.173C171.14,117.993,174.8,112.768,180.279,111.802"
					/>
			</g>
		</g>
		<g opacity="0.06" clip-path="url(#SVGID_4_)" enable-background="new    ">
			<g>
				<defs>
					<rect id="SVGID_25_" x="117.788" y="154.084" width="11.238" height="11.238"/>
				</defs>
				<clipPath id="SVGID_26_">
					<use xlink:href="#SVGID_25_"  overflow="visible"/>
				</clipPath>
				<path clip-path="url(#SVGID_26_)" fill="#161ABC" d="M128.272,156.894c1.552,2.687,0.631,6.123-2.056,7.674
					c-2.687,1.552-6.123,0.631-7.674-2.056c-1.552-2.687-0.631-6.123,2.056-7.675C123.285,153.286,126.721,154.207,128.272,156.894"
					/>
			</g>
		</g>
		<g opacity="0.06" clip-path="url(#SVGID_4_)" enable-background="new    ">
			<g>
				<defs>
					<rect id="SVGID_27_" x="385.373" y="170" width="6.237" height="6.237"/>
				</defs>
				<clipPath id="SVGID_28_">
					<use xlink:href="#SVGID_27_"  overflow="visible"/>
				</clipPath>
				<path clip-path="url(#SVGID_28_)" fill="#161ABC" d="M391.192,171.559c0.861,1.492,0.351,3.398-1.141,4.259
					c-1.491,0.862-3.398,0.35-4.259-1.141c-0.861-1.491-0.35-3.398,1.141-4.259S390.332,170.068,391.192,171.559"/>
			</g>
		</g>
		<g opacity="0.06" clip-path="url(#SVGID_4_)" enable-background="new    ">
			<g>
				<defs>
					<rect id="SVGID_29_" x="202.373" y="91" width="6.237" height="6.237"/>
				</defs>
				<clipPath id="SVGID_30_">
					<use xlink:href="#SVGID_29_"  overflow="visible"/>
				</clipPath>
				<path clip-path="url(#SVGID_30_)" fill="#F8153A" d="M208.192,92.559c0.861,1.492,0.351,3.398-1.141,4.259
					c-1.491,0.862-3.398,0.35-4.259-1.141c-0.861-1.491-0.35-3.398,1.141-4.259S207.332,91.068,208.192,92.559"/>
			</g>
		</g>
		<path clip-path="url(#SVGID_4_)" fill="#FFF1F3" d="M80.192,136.559c0.861,1.492,0.351,3.398-1.141,4.259
			c-1.491,0.862-3.398,0.35-4.259-1.141s-0.35-3.398,1.141-4.259S79.332,135.068,80.192,136.559"/>
		<g opacity="0.06" clip-path="url(#SVGID_4_)" enable-background="new    ">
			<g>
				<defs>
					<rect id="SVGID_31_" x="207.173" y="122.747" width="37.886" height="37.886"/>
				</defs>
				<clipPath id="SVGID_32_">
					<use xlink:href="#SVGID_31_"  overflow="visible"/>
				</clipPath>
				<path clip-path="url(#SVGID_32_)" fill="#F8153A" d="M243.675,134.596c3.918,9.697-0.767,20.735-10.465,24.653
					c-9.697,3.918-20.735-0.767-24.653-10.465c-3.918-9.697,0.767-20.735,10.465-24.653
					C228.72,120.213,239.757,124.898,243.675,134.596"/>
			</g>
		</g>
		<g opacity="0.06" clip-path="url(#SVGID_4_)" enable-background="new    ">
			<g>
				<defs>
					<rect id="SVGID_33_" x="329.563" y="11.24" width="11.152" height="11.152"/>
				</defs>
				<clipPath id="SVGID_34_">
					<use xlink:href="#SVGID_33_"  overflow="visible"/>
				</clipPath>
				<path clip-path="url(#SVGID_34_)" fill="#F8153A" d="M334.171,11.326c3.032-0.535,5.924,1.49,6.459,4.522
					c0.534,3.032-1.49,5.924-4.522,6.458c-3.033,0.535-5.924-1.49-6.459-4.522C329.114,14.752,331.139,11.861,334.171,11.326"/>
			</g>
		</g>
		<g opacity="0.06" clip-path="url(#SVGID_4_)" enable-background="new    ">
			<g>
				<defs>
					<rect id="SVGID_35_" x="359.373" y="0" width="6.237" height="6.237"/>
				</defs>
				<clipPath id="SVGID_36_">
					<use xlink:href="#SVGID_35_"  overflow="visible"/>
				</clipPath>
				<path clip-path="url(#SVGID_36_)" fill="#161ABC" d="M365.192,1.559c0.861,1.492,0.351,3.398-1.141,4.259
					c-1.491,0.862-3.398,0.35-4.259-1.141c-0.861-1.491-0.35-3.398,1.141-4.259C362.424-0.443,364.332,0.068,365.192,1.559"/>
			</g>
		</g>
		<g opacity="0.06" clip-path="url(#SVGID_4_)" enable-background="new    ">
			<g>
				<defs>
					<rect id="SVGID_37_" x="353.25" y="60.734" width="21.239" height="21.24"/>
				</defs>
				<clipPath id="SVGID_38_">
					<use xlink:href="#SVGID_37_"  overflow="visible"/>
				</clipPath>
				<path clip-path="url(#SVGID_38_)" fill="#161ABC" d="M373.065,66.045c2.933,5.079,1.192,11.572-3.886,14.504
					c-5.079,2.933-11.573,1.193-14.505-3.886c-2.931-5.078-1.192-11.572,3.887-14.504C363.639,59.227,370.133,60.966,373.065,66.045
					"/>
			</g>
		</g>
		<g opacity="0.06" clip-path="url(#SVGID_4_)" enable-background="new    ">
			<g>
				<defs>
					<rect id="SVGID_39_" x="63.753" y="207.398" width="9.152" height="9.152"/>
				</defs>
				<clipPath id="SVGID_40_">
					<use xlink:href="#SVGID_39_"  overflow="visible"/>
				</clipPath>
				<path clip-path="url(#SVGID_40_)" fill="#F8153A" d="M67.535,207.469c2.488-0.439,4.861,1.223,5.3,3.711
					c0.438,2.488-1.223,4.861-3.711,5.3s-4.861-1.223-5.3-3.711C63.385,210.281,65.046,207.907,67.535,207.469"/>
			</g>
		</g>
	</g>
</g>
</svg>
