<?xml version="1.0" encoding="utf-8"?>
<!-- Generator: Adobe Illustrator 17.0.0, SVG Export Plug-In . SVG Version: 6.00 Build 0)  -->
<!DOCTYPE svg PUBLIC "-//W3C//DTD SVG 1.1//EN" "http://www.w3.org/Graphics/SVG/1.1/DTD/svg11.dtd">
<svg version="1.1" id="Layer_1" xmlns="http://www.w3.org/2000/svg" xmlns:xlink="http://www.w3.org/1999/xlink" x="0px" y="0px"
	 width="595.16px" height="542.365px" viewBox="0 0 595.16 542.365" enable-background="new 0 0 595.16 542.365"
	 xml:space="preserve">
<g>
	<defs>
		<rect id="SVGID_1_" width="595.16" height="542.365"/>
	</defs>
	<clipPath id="SVGID_2_">
		<use xlink:href="#SVGID_1_"  overflow="visible"/>
	</clipPath>
	<g clip-path="url(#SVGID_2_)">
		<defs>
			<rect id="SVGID_3_" width="595.16" height="542.365"/>
		</defs>
		<clipPath id="SVGID_4_">
			<use xlink:href="#SVGID_3_"  overflow="visible"/>
		</clipPath>
		<g opacity="0.042" clip-path="url(#SVGID_4_)" enable-background="new    ">
			<g>
				<defs>
					<rect id="SVGID_5_" x="130.643" y="203.489" width="464.517" height="338.876"/>
				</defs>
				<clipPath id="SVGID_6_">
					<use xlink:href="#SVGID_5_"  overflow="visible"/>
				</clipPath>
				<path clip-path="url(#SVGID_6_)" fill="#161ABC" d="M515.516,447.132c16.814-9.422,33.915-19.062,47.525-32.109
					c25.431-24.368,35.376-58.345,31.194-87.944c-4.183-29.599-21.057-55.176-42.369-76.27
					c-19.074-18.872-42.378-34.913-70.593-42.624c-28.214-7.711-61.78-6.393-90.921,7.446c-19.775,9.389-36.82,24.038-57.231,31.845
					c-32.949,12.601-67.857,5.104-101.986,11.767c-35.536,6.941-69.271,30.321-86.439,59.899
					c-18.713,32.256-17.345,69.004-4.083,98.952c13.261,29.948,37.251,54.093,62.659,76.127
					c30.277,26.253,67.463,51.474,113.618,47.783c33.41-2.665,65.32-20.133,95.471-37.038
					C446.746,485.689,481.131,466.411,515.516,447.132"/>
			</g>
		</g>
		<g opacity="0.042" clip-path="url(#SVGID_4_)" enable-background="new    ">
			<g>
				<defs>
					<rect id="SVGID_7_" width="408.315" height="390.758"/>
				</defs>
				<clipPath id="SVGID_8_">
					<use xlink:href="#SVGID_7_"  overflow="visible"/>
				</clipPath>
				<path clip-path="url(#SVGID_8_)" fill="#F8153A" d="M229.845,371.998c17.776,7.449,35.9,14.99,54.562,17.683
					c34.858,5.037,67.755-8.045,88.504-29.564c20.749-21.519,30.517-50.563,34.017-80.344c3.129-26.648,1.422-54.889-9.873-81.869
					c-11.294-26.981-32.998-52.62-61.844-67.063c-19.574-9.803-41.611-14.215-60.329-25.492
					c-30.215-18.206-45.799-50.33-72.061-73.122C175.473,8.497,136.28-3.692,102.402,0.989
					C65.464,6.102,37.348,29.804,21.913,58.692C6.479,87.581,2.222,121.349,0.501,154.937
					c-2.047,40.022,0.972,84.852,32.297,118.951c22.67,24.686,56.08,39.078,87.964,52.428
					C157.122,341.545,193.483,356.772,229.845,371.998"/>
			</g>
		</g>
		<g opacity="0.06" clip-path="url(#SVGID_4_)" enable-background="new    ">
			<g>
				<defs>
					<rect id="SVGID_9_" x="265.395" y="43.476" width="29.876" height="29.876"/>
				</defs>
				<clipPath id="SVGID_10_">
					<use xlink:href="#SVGID_9_"  overflow="visible"/>
				</clipPath>
				<path clip-path="url(#SVGID_10_)" fill="#161ABC" d="M280.333,43.476c8.25,0,14.938,6.688,14.938,14.938
					s-6.688,14.938-14.938,14.938s-14.938-6.688-14.938-14.938S272.083,43.476,280.333,43.476"/>
			</g>
		</g>
		<g opacity="0.06" clip-path="url(#SVGID_4_)" enable-background="new    ">
			<g>
				<defs>
					<rect id="SVGID_11_" x="460.395" y="318.476" width="36.876" height="36.876"/>
				</defs>
				<clipPath id="SVGID_12_">
					<use xlink:href="#SVGID_11_"  overflow="visible"/>
				</clipPath>
				<path clip-path="url(#SVGID_12_)" fill="#161ABC" d="M478.833,318.476c10.183,0,18.437,8.255,18.437,18.438
					s-8.254,18.438-18.437,18.438c-10.184,0-18.438-8.255-18.438-18.438S468.649,318.476,478.833,318.476"/>
			</g>
		</g>
		<g opacity="0.06" clip-path="url(#SVGID_4_)" enable-background="new    ">
			<g>
				<defs>
					<rect id="SVGID_13_" x="276.464" y="145.805" width="21.239" height="21.24"/>
				</defs>
				<clipPath id="SVGID_14_">
					<use xlink:href="#SVGID_13_"  overflow="visible"/>
				</clipPath>
				<path clip-path="url(#SVGID_14_)" fill="#161ABC" d="M296.279,151.116c2.932,5.079,1.191,11.573-3.887,14.505
					c-5.079,2.932-11.572,1.192-14.505-3.887c-2.931-5.078-1.191-11.572,3.887-14.504S293.346,146.038,296.279,151.116"/>
			</g>
		</g>
		<g opacity="0.06" clip-path="url(#SVGID_4_)" enable-background="new    ">
			<g>
				<defs>
					<rect id="SVGID_15_" x="373.17" y="255.252" width="14.88" height="14.88"/>
				</defs>
				<clipPath id="SVGID_16_">
					<use xlink:href="#SVGID_15_"  overflow="visible"/>
				</clipPath>
				<path clip-path="url(#SVGID_16_)" fill="#F8153A" d="M387.506,259.906c1.539,3.809-0.301,8.144-4.109,9.683
					c-3.81,1.539-8.145-0.302-9.683-4.11c-1.539-3.809,0.301-8.144,4.109-9.683C381.632,254.257,385.968,256.097,387.506,259.906"/>
			</g>
		</g>
		<g opacity="0.06" clip-path="url(#SVGID_4_)" enable-background="new    ">
			<g>
				<defs>
					<rect id="SVGID_17_" x="181.35" y="97.326" width="40.887" height="40.887"/>
				</defs>
				<clipPath id="SVGID_18_">
					<use xlink:href="#SVGID_17_"  overflow="visible"/>
				</clipPath>
				<path clip-path="url(#SVGID_18_)" fill="#F8153A" d="M220.743,110.113c4.229,10.466-0.828,22.377-11.294,26.606
					c-10.466,4.228-22.377-0.828-26.605-11.293c-4.229-10.466,0.827-22.378,11.293-26.606
					C204.602,94.592,216.514,99.648,220.743,110.113"/>
			</g>
		</g>
		<g opacity="0.06" clip-path="url(#SVGID_4_)" enable-background="new    ">
			<g>
				<defs>
					<rect id="SVGID_19_" x="396.498" y="149.8" width="17.881" height="17.88"/>
				</defs>
				<clipPath id="SVGID_20_">
					<use xlink:href="#SVGID_19_"  overflow="visible"/>
				</clipPath>
				<path clip-path="url(#SVGID_20_)" fill="#F8153A" d="M413.725,155.392c1.85,4.577-0.361,9.786-4.938,11.635
					c-4.578,1.85-9.787-0.362-11.636-4.939c-1.849-4.576,0.362-9.786,4.939-11.635S411.876,150.815,413.725,155.392"/>
			</g>
		</g>
		<g opacity="0.06" clip-path="url(#SVGID_4_)" enable-background="new    ">
			<g>
				<defs>
					<rect id="SVGID_21_" x="547.065" y="214.857" width="10.879" height="10.879"/>
				</defs>
				<clipPath id="SVGID_22_">
					<use xlink:href="#SVGID_21_"  overflow="visible"/>
				</clipPath>
				<path clip-path="url(#SVGID_22_)" fill="#F8153A" d="M557.547,218.259c1.125,2.785-0.22,5.954-3.005,7.08
					c-2.784,1.125-5.954-0.221-7.079-3.005c-1.125-2.785,0.221-5.954,3.005-7.08C553.253,214.13,556.422,215.475,557.547,218.259"/>
			</g>
		</g>
		<g opacity="0.06" clip-path="url(#SVGID_4_)" enable-background="new    ">
			<g>
				<defs>
					<rect id="SVGID_23_" x="508.395" y="189.476" width="15.876" height="16.876"/>
				</defs>
				<clipPath id="SVGID_24_">
					<use xlink:href="#SVGID_23_"  overflow="visible"/>
				</clipPath>
				<path clip-path="url(#SVGID_24_)" fill="#161ABC" d="M516.333,189.476c4.384,0,7.937,3.778,7.937,8.438
					s-3.553,8.438-7.937,8.438c-4.384,0-7.938-3.778-7.938-8.438S511.949,189.476,516.333,189.476"/>
			</g>
		</g>
		<g opacity="0.06" clip-path="url(#SVGID_4_)" enable-background="new    ">
			<g>
				<defs>
					<rect id="SVGID_25_" x="288.086" y="87.74" width="6.237" height="6.238"/>
				</defs>
				<clipPath id="SVGID_26_">
					<use xlink:href="#SVGID_25_"  overflow="visible"/>
				</clipPath>
				<path clip-path="url(#SVGID_26_)" fill="#161ABC" d="M293.905,89.3c0.86,1.491,0.35,3.398-1.142,4.259
					c-1.491,0.861-3.398,0.35-4.259-1.141c-0.861-1.492-0.35-3.398,1.141-4.259S293.044,87.809,293.905,89.3"/>
			</g>
		</g>
		<g opacity="0.06" clip-path="url(#SVGID_4_)" enable-background="new    ">
			<g>
				<defs>
					<rect id="SVGID_27_" x="441.086" y="118.74" width="6.237" height="6.238"/>
				</defs>
				<clipPath id="SVGID_28_">
					<use xlink:href="#SVGID_27_"  overflow="visible"/>
				</clipPath>
				<path clip-path="url(#SVGID_28_)" fill="#161ABC" d="M446.905,120.3c0.86,1.491,0.35,3.398-1.142,4.259
					c-1.491,0.861-3.398,0.35-4.259-1.141c-0.861-1.492-0.35-3.398,1.141-4.259S446.044,118.809,446.905,120.3"/>
			</g>
		</g>
		<g opacity="0.06" clip-path="url(#SVGID_4_)" enable-background="new    ">
			<g>
				<defs>
					<rect id="SVGID_29_" x="512.086" y="310.74" width="6.237" height="6.238"/>
				</defs>
				<clipPath id="SVGID_30_">
					<use xlink:href="#SVGID_29_"  overflow="visible"/>
				</clipPath>
				<path clip-path="url(#SVGID_30_)" fill="#161ABC" d="M517.905,312.3c0.86,1.491,0.35,3.398-1.142,4.259
					c-1.491,0.861-3.398,0.35-4.259-1.141c-0.861-1.492-0.35-3.398,1.141-4.259C515.136,310.298,517.044,310.809,517.905,312.3"/>
			</g>
		</g>
		<g opacity="0.06" clip-path="url(#SVGID_4_)" enable-background="new    ">
			<g>
				<defs>
					<rect id="SVGID_31_" x="535.086" y="167.74" width="6.237" height="6.238"/>
				</defs>
				<clipPath id="SVGID_32_">
					<use xlink:href="#SVGID_31_"  overflow="visible"/>
				</clipPath>
				<path clip-path="url(#SVGID_32_)" fill="#161ABC" d="M540.905,169.3c0.86,1.491,0.35,3.398-1.142,4.259
					c-1.491,0.861-3.398,0.35-4.259-1.141c-0.861-1.492-0.35-3.398,1.141-4.259C538.136,167.298,540.044,167.809,540.905,169.3"/>
			</g>
		</g>
		<g opacity="0.06" clip-path="url(#SVGID_4_)" enable-background="new    ">
			<g>
				<defs>
					<rect id="SVGID_33_" x="202.586" y="70.07" width="6.237" height="6.238"/>
				</defs>
				<clipPath id="SVGID_34_">
					<use xlink:href="#SVGID_33_"  overflow="visible"/>
				</clipPath>
				<path clip-path="url(#SVGID_34_)" fill="#161ABC" d="M208.405,71.63c0.86,1.491,0.35,3.398-1.142,4.259
					c-1.491,0.861-3.398,0.35-4.259-1.141c-0.861-1.492-0.35-3.398,1.141-4.26C205.636,69.628,207.544,70.139,208.405,71.63"/>
			</g>
		</g>
		<g opacity="0.06" clip-path="url(#SVGID_4_)" enable-background="new    ">
			<g>
				<defs>
					<rect id="SVGID_35_" x="508.464" y="262.805" width="21.239" height="21.24"/>
				</defs>
				<clipPath id="SVGID_36_">
					<use xlink:href="#SVGID_35_"  overflow="visible"/>
				</clipPath>
				<path clip-path="url(#SVGID_36_)" fill="#161ABC" d="M528.279,268.116c2.932,5.079,1.191,11.573-3.887,14.505
					c-5.079,2.932-11.572,1.192-14.505-3.887c-2.931-5.078-1.191-11.572,3.887-14.504S525.346,263.038,528.279,268.116"/>
			</g>
		</g>
		<g opacity="0.06" clip-path="url(#SVGID_4_)" enable-background="new    ">
			<g>
				<defs>
					<rect id="SVGID_37_" x="237.826" y="29.347" width="20.882" height="20.882"/>
				</defs>
				<clipPath id="SVGID_38_">
					<use xlink:href="#SVGID_37_"  overflow="visible"/>
				</clipPath>
				<path clip-path="url(#SVGID_38_)" fill="#F8153A" d="M257.945,35.878c2.159,5.345-0.423,11.429-5.769,13.588
					c-5.344,2.16-11.427-0.423-13.587-5.768s0.422-11.428,5.767-13.588C249.702,27.951,255.785,30.533,257.945,35.878"/>
			</g>
		</g>
		<g opacity="0.06" clip-path="url(#SVGID_4_)" enable-background="new    ">
			<g>
				<defs>
					<rect id="SVGID_39_" x="545.17" y="182.252" width="14.88" height="14.88"/>
				</defs>
				<clipPath id="SVGID_40_">
					<use xlink:href="#SVGID_39_"  overflow="visible"/>
				</clipPath>
				<path clip-path="url(#SVGID_40_)" fill="#F8153A" d="M559.506,186.906c1.539,3.809-0.301,8.144-4.109,9.683
					c-3.81,1.539-8.145-0.302-9.684-4.11c-1.538-3.809,0.302-8.144,4.11-9.683C553.632,181.257,557.968,183.097,559.506,186.906"/>
			</g>
		</g>
		<g opacity="0.06" clip-path="url(#SVGID_4_)" enable-background="new    ">
			<g>
				<defs>
					<rect id="SVGID_41_" x="385.365" y="101.685" width="31.884" height="31.885"/>
				</defs>
				<clipPath id="SVGID_42_">
					<use xlink:href="#SVGID_41_"  overflow="visible"/>
				</clipPath>
				<path clip-path="url(#SVGID_42_)" fill="#F8153A" d="M416.084,111.657c3.298,8.162-0.646,17.451-8.807,20.748
					c-8.161,3.297-17.45-0.645-20.748-8.807c-3.297-8.161,0.646-17.45,8.807-20.748C403.498,99.553,412.787,103.496,416.084,111.657
					"/>
			</g>
		</g>
		<g opacity="0.06" clip-path="url(#SVGID_4_)" enable-background="new    ">
			<g>
				<defs>
					<rect id="SVGID_43_" x="324.001" y="222.155" width="11.237" height="11.238"/>
				</defs>
				<clipPath id="SVGID_44_">
					<use xlink:href="#SVGID_43_"  overflow="visible"/>
				</clipPath>
				<path clip-path="url(#SVGID_44_)" fill="#161ABC" d="M334.484,224.965c1.552,2.687,0.631,6.123-2.056,7.674
					c-2.687,1.552-6.123,0.631-7.674-2.056c-1.551-2.687-0.631-6.123,2.056-7.674C329.497,221.357,332.933,222.278,334.484,224.965"
					/>
			</g>
		</g>
		<g opacity="0.06" clip-path="url(#SVGID_4_)" enable-background="new    ">
			<g>
				<defs>
					<rect id="SVGID_45_" x="262.586" y="19.07" width="6.237" height="6.238"/>
				</defs>
				<clipPath id="SVGID_46_">
					<use xlink:href="#SVGID_45_"  overflow="visible"/>
				</clipPath>
				<path clip-path="url(#SVGID_46_)" fill="#161ABC" d="M268.405,20.63c0.86,1.491,0.35,3.398-1.142,4.259
					c-1.491,0.861-3.398,0.35-4.259-1.141c-0.861-1.492-0.35-3.398,1.141-4.26C265.636,18.628,267.544,19.139,268.405,20.63"/>
			</g>
		</g>
		<g opacity="0.06" clip-path="url(#SVGID_4_)" enable-background="new    ">
			<g>
				<defs>
					<rect id="SVGID_47_" x="452.586" y="156.07" width="6.237" height="6.238"/>
				</defs>
				<clipPath id="SVGID_48_">
					<use xlink:href="#SVGID_47_"  overflow="visible"/>
				</clipPath>
				<path clip-path="url(#SVGID_48_)" fill="#161ABC" d="M458.405,157.63c0.86,1.491,0.35,3.398-1.142,4.259
					c-1.491,0.861-3.398,0.35-4.259-1.141c-0.861-1.492-0.35-3.398,1.141-4.26C455.636,155.628,457.544,156.139,458.405,157.63"/>
			</g>
		</g>
	</g>
</g>
</svg>
