<?xml version="1.0" encoding="utf-8"?>
<!-- Generator: Adobe Illustrator 17.0.0, SVG Export Plug-In . SVG Version: 6.00 Build 0)  -->
<!DOCTYPE svg PUBLIC "-//W3C//DTD SVG 1.1//EN" "http://www.w3.org/Graphics/SVG/1.1/DTD/svg11.dtd">
<svg version="1.1" id="Layer_1" xmlns="http://www.w3.org/2000/svg" xmlns:xlink="http://www.w3.org/1999/xlink" x="0px" y="0px"
	 width="557.246px" height="110.7px" viewBox="0 0 557.246 110.7" enable-background="new 0 0 557.246 110.7" xml:space="preserve">
<g>
	<defs>
		<rect id="SVGID_1_" width="557.246" height="110.7"/>
	</defs>
	<clipPath id="SVGID_2_">
		<use xlink:href="#SVGID_1_"  overflow="visible"/>
	</clipPath>
	<path clip-path="url(#SVGID_2_)" fill="#151515" d="M45.6,23.25c-3.3-4.099-7.65-6.149-13.05-6.149c-1.901,0-3.75,0.449-5.55,1.349
		c-1.8,0.901-2.7,2.451-2.7,4.651c0,1.799,0.923,3.126,2.775,3.974c1.849,0.851,4.2,1.601,7.05,2.25c2.85,0.652,5.899,1.35,9.15,2.1
		c3.248,0.75,6.3,1.927,9.15,3.525c2.85,1.601,5.198,3.776,7.05,6.526c1.849,2.751,2.775,6.425,2.775,11.024
		c0,4.702-1.027,8.576-3.075,11.625c-2.051,3.052-4.676,5.501-7.875,7.351c-3.202,1.851-6.802,3.149-10.8,3.899
		c-4.001,0.75-7.95,1.125-11.85,1.125c-5.1,0-10.252-0.727-15.45-2.175C7.999,72.877,3.6,70.301,0,66.601L13.65,51.45
		c2.1,2.602,4.425,4.575,6.975,5.925c2.55,1.351,5.524,2.025,8.925,2.025c2.599,0,4.95-0.375,7.05-1.125
		c2.1-0.75,3.15-2.124,3.15-4.125c0-1.898-0.926-3.323-2.775-4.275c-1.852-0.949-4.2-1.748-7.05-2.399
		c-2.85-0.65-5.902-1.351-9.15-2.101c-3.251-0.75-6.3-1.875-9.15-3.375c-2.85-1.5-5.201-3.623-7.05-6.375
		C2.723,32.876,1.8,29.201,1.8,24.601c0-4.299,0.874-8,2.625-11.101c1.748-3.099,4.05-5.648,6.9-7.649
		c2.85-2,6.124-3.474,9.825-4.426C24.848,0.476,28.598,0,32.4,0c4.8,0,9.649,0.701,14.55,2.101C51.848,3.502,55.999,6,59.4,9.601
		L45.6,23.25z"/>
	<path clip-path="url(#SVGID_2_)" fill="#151515" d="M115.8,86.55c-1.5,3.9-2.951,7.351-4.35,10.351
		c-1.402,3-3.176,5.524-5.325,7.575c-2.152,2.048-4.875,3.599-8.175,4.649c-3.3,1.05-7.65,1.575-13.05,1.575
		c-5.801,0-11.4-0.9-16.8-2.7l3-18.45c3.398,1.5,6.9,2.25,10.5,2.25c2.498,0,4.549-0.276,6.15-0.824
		c1.598-0.551,2.925-1.351,3.975-2.401c1.05-1.049,1.924-2.325,2.625-3.825c0.698-1.5,1.448-3.251,2.25-5.25l1.65-4.2L66.3,1.8h24.3
		l18.75,48.15h0.3L125.7,1.8h23.1L115.8,86.55z"/>
	<path clip-path="url(#SVGID_2_)" fill="#151515" d="M157.2,1.8h21.6v9.9h0.3c0.698-1.399,1.699-2.798,3-4.2
		c1.298-1.399,2.85-2.648,4.65-3.75c1.8-1.098,3.848-1.999,6.15-2.7c2.299-0.698,4.8-1.05,7.5-1.05c5.7,0,10.298,0.877,13.8,2.625
		c3.499,1.751,6.225,4.177,8.175,7.276c1.95,3.1,3.274,6.75,3.975,10.95c0.698,4.199,1.05,8.751,1.05,13.649v40.2h-22.5V39
		c0-2.099-0.075-4.274-0.225-6.524c-0.15-2.25-0.6-4.324-1.35-6.226c-0.75-1.898-1.901-3.45-3.45-4.649
		c-1.552-1.2-3.776-1.801-6.675-1.801c-2.902,0-5.25,0.525-7.05,1.575c-1.8,1.05-3.176,2.452-4.125,4.2
		c-0.952,1.751-1.575,3.727-1.875,5.925c-0.3,2.201-0.45,4.5-0.45,6.901V74.7h-22.5V1.8z"/>
	<path clip-path="url(#SVGID_2_)" fill="#151515" d="M312.298,62.101c-3.6,4.6-8.152,8.151-13.65,10.649
		c-5.501,2.499-11.201,3.75-17.1,3.75c-5.601,0-10.875-0.899-15.825-2.7c-4.95-1.8-9.251-4.373-12.9-7.725
		c-3.652-3.349-6.525-7.373-8.625-12.075c-2.1-4.699-3.15-9.949-3.15-15.75c0-5.798,1.05-11.048,3.15-15.75
		c2.1-4.699,4.973-8.724,8.625-12.075c3.649-3.349,7.95-5.925,12.9-7.725c4.95-1.8,10.224-2.7,15.825-2.7
		c5.199,0,9.924,0.9,14.175,2.7c4.249,1.8,7.849,4.376,10.8,7.725c2.949,3.351,5.225,7.376,6.825,12.075
		c1.599,4.702,2.4,9.952,2.4,15.75v7.05h-52.2c0.9,4.301,2.85,7.725,5.85,10.275s6.699,3.825,11.1,3.825
		c3.699,0,6.825-0.825,9.375-2.475c2.55-1.65,4.774-3.774,6.675-6.375L312.298,62.101z M293.248,30
		c0.099-3.799-1.151-7.05-3.75-9.75c-2.602-2.7-5.951-4.05-10.05-4.05c-2.501,0-4.701,0.401-6.6,1.2
		c-1.901,0.802-3.525,1.826-4.875,3.076c-1.35,1.251-2.4,2.699-3.15,4.349c-0.75,1.651-1.177,3.375-1.275,5.175H293.248z"/>
	<path clip-path="url(#SVGID_2_)" fill="#151515" d="M329.397,1.8h22.5v11.7h0.3c2.4-4.5,5.25-7.875,8.55-10.125
		c3.3-2.25,7.448-3.375,12.45-3.375c1.298,0,2.599,0.052,3.9,0.151c1.298,0.1,2.498,0.299,3.6,0.599V21.3
		c-1.601-0.499-3.176-0.874-4.725-1.125c-1.552-0.248-3.176-0.375-4.875-0.375c-4.301,0-7.702,0.601-10.2,1.801
		c-2.501,1.199-4.425,2.875-5.775,5.024c-1.35,2.152-2.227,4.726-2.625,7.726c-0.401,3-0.6,6.3-0.6,9.899V74.7h-22.5V1.8z"/>
	<path clip-path="url(#SVGID_2_)" fill="#151515" d="M464.247,68.55c0,13.801-3.476,24.274-10.425,31.426
		c-6.952,7.148-17.526,10.724-31.725,10.724c-6.502,0-12.9-0.726-19.2-2.174c-6.3-1.452-12.101-4.276-17.4-8.476l12.45-18.6
		c3.499,2.9,7.174,5.199,11.025,6.901c3.848,1.699,8.074,2.55,12.675,2.55c6.9,0,11.974-1.676,15.225-5.026
		c3.248-3.351,4.875-7.626,4.875-12.825V66h-0.3c-2.602,3.502-5.827,5.977-9.675,7.425c-3.851,1.449-7.476,2.176-10.875,2.176
		c-5.4,0-10.301-0.924-14.7-2.776c-4.401-1.849-8.175-4.448-11.325-7.799c-3.15-3.35-5.576-7.325-7.275-11.925
		c-1.701-4.599-2.55-9.65-2.55-15.151c0-4.799,0.773-9.499,2.325-14.099c1.549-4.599,3.75-8.649,6.6-12.151
		c2.85-3.499,6.324-6.323,10.425-8.474C408.496,1.076,413.146,0,418.347,0c3.199,0,6.124,0.352,8.775,1.05
		c2.649,0.701,5.025,1.602,7.125,2.7c2.1,1.102,3.9,2.325,5.4,3.675c1.5,1.351,2.7,2.677,3.6,3.976h0.3V1.8h20.7V68.55z
		 M407.547,37.8c0,2.4,0.45,4.676,1.35,6.825c0.9,2.152,2.175,4.05,3.825,5.7c1.65,1.651,3.549,2.977,5.7,3.975
		c2.149,1.001,4.523,1.5,7.125,1.5c2.499,0,4.849-0.499,7.05-1.5c2.199-0.998,4.125-2.324,5.775-3.975
		c1.65-1.65,2.925-3.548,3.825-5.7c0.9-2.149,1.35-4.425,1.35-6.825c0-2.399-0.45-4.673-1.35-6.824c-0.9-2.15-2.175-4.051-3.825-5.7
		c-1.65-1.651-3.576-2.975-5.775-3.976c-2.201-0.998-4.551-1.5-7.05-1.5c-2.602,0-4.976,0.502-7.125,1.5
		c-2.151,1.001-4.05,2.325-5.7,3.976c-1.65,1.649-2.925,3.55-3.825,5.7C407.997,33.127,407.547,35.401,407.547,37.8"/>
	<path clip-path="url(#SVGID_2_)" fill="#151515" d="M524.246,86.55c-1.5,3.9-2.951,7.351-4.35,10.351
		c-1.402,3-3.176,5.524-5.325,7.575c-2.152,2.048-4.875,3.599-8.175,4.649c-3.3,1.05-7.65,1.575-13.05,1.575
		c-5.801,0-11.4-0.9-16.8-2.7l3-18.45c3.398,1.5,6.9,2.25,10.5,2.25c2.498,0,4.549-0.276,6.15-0.824
		c1.598-0.551,2.925-1.351,3.975-2.401c1.05-1.049,1.924-2.325,2.625-3.825c0.698-1.5,1.448-3.251,2.25-5.25l1.65-4.2l-31.95-73.5
		h24.3l18.75,48.15h0.3l16.05-48.15h23.1L524.246,86.55z"/>
</g>
</svg>
